<?xml version="1.0" encoding="UTF-8"?>
<svg version="1.1" xmlns="http://www.w3.org/2000/svg" width="512" height="512">
<path d="M0 0 C3.89354726 3.35705575 6.35363187 5.12277261 11.62890625 4.96875 C17.05884175 3.75365954 21.09819691 -0.83105847 24.98828125 -4.578125 C51.16640142 -29.48369766 88.28437828 -40.88445308 123.86328125 -40.53125 C163.421404 -39.15411779 198.25865106 -23.86231782 225.86328125 4.46875 C226.71599609 5.25378906 226.71599609 5.25378906 227.5859375 6.0546875 C244.54356168 22.03463554 255.30242651 44.48700402 261.61328125 66.59375 C261.91153809 67.63088135 261.91153809 67.63088135 262.21582031 68.68896484 C265.48890016 80.76230653 266.2384948 92.77930265 266.17578125 105.21875 C266.17304703 106.3449324 266.17304703 106.3449324 266.17025757 107.49386597 C266.12550338 118.43794156 265.6859214 128.83832299 262.86328125 139.46875 C262.69699219 140.1400293 262.53070313 140.81130859 262.359375 141.50292969 C258.71099089 156.13024746 252.91984008 169.919908 245.05078125 182.78125 C244.69733643 183.36592041 244.3438916 183.95059082 243.97973633 184.55297852 C234.75272733 199.00327178 221.72647774 210.90891592 209.68920898 222.94921875 C207.762027 224.88296759 205.83629048 226.81815387 203.91043091 228.7532196 C198.71139072 233.97492034 193.50507414 239.18932409 188.29723239 244.40224457 C185.040011 247.66274063 181.78442134 250.92486262 178.52916145 254.18731689 C169.49643598 263.23957169 160.46216329 272.29027395 151.42112637 281.33422852 C150.8449089 281.91063355 150.26869143 282.48703859 149.67501283 283.08091044 C148.5072168 284.2490727 147.3394195 285.41723369 146.17162096 286.58539343 C145.30223377 287.45505483 145.30223377 287.45505483 144.4152832 288.34228516 C143.54482197 289.21301721 143.54482197 289.21301721 142.65677566 290.10133982 C133.23615832 299.52550544 123.82736355 308.96137987 114.42365324 318.40241301 C104.74395654 328.12021749 95.05490343 337.82860904 85.35628468 347.52752972 C79.92077355 352.9636243 74.48925023 358.40357032 69.06796074 363.85385132 C64.45749424 368.48886298 59.83846294 373.11512354 55.20820098 377.73036355 C52.84913015 380.08228228 50.49572285 382.43919829 48.15025139 384.80472374 C45.60183276 387.37359582 43.03838857 389.92649588 40.47068787 392.47607422 C39.74080278 393.21915927 39.0109177 393.96224432 38.25891489 394.7278471 C30.15325344 402.70383015 20.62364478 407.36820063 9.140625 407.5 C-11.57312149 406.33466968 -24.20960112 388.5528709 -37.90600586 374.87646484 C-39.80075759 372.98798688 -41.69568948 371.09969107 -43.59080505 369.21157837 C-49.25119844 363.57081284 -54.90686882 357.92532358 -60.56191406 352.27919716 C-62.69759905 350.1470297 -64.8335976 348.01517653 -66.96961189 345.88333898 C-76.40580603 336.46559241 -85.84065068 327.04649633 -95.27147579 317.62337303 C-97.57184338 315.32491484 -99.87221648 313.02646216 -102.17260742 310.72802734 C-102.74424626 310.15687225 -103.31588509 309.58571715 -103.90484632 308.99725433 C-113.16292394 299.74747531 -122.42949159 290.50625099 -131.69964223 281.26857321 C-141.24598348 271.75539698 -150.78468846 262.23461727 -160.31605536 252.70643771 C-165.65616879 247.36847966 -170.99946041 242.03379436 -176.35133171 236.70762253 C-180.90857426 232.17221579 -185.45876936 227.62987921 -190.00027507 223.07871239 C-192.31159248 220.76288849 -194.62695429 218.45139855 -196.94921112 216.14653778 C-226.25708114 187.04583276 -246.04737195 153.01544387 -246.37841797 110.62744141 C-246.4592549 83.83109204 -246.4592549 83.83109204 -243.13671875 71.46875 C-242.93804199 70.69499023 -242.73936523 69.92123047 -242.53466797 69.12402344 C-235.67237809 42.7337641 -222.78269722 21.06533387 -203.50390625 1.84375 C-202.18293989 0.51842401 -200.87306831 -0.81917516 -199.609375 -2.19921875 C-177.14192382 -26.40929773 -140.38062788 -38.86559067 -108.19140625 -40.46484375 C-66.33934666 -41.45833342 -31.13151096 -27.39810296 0 0 Z M-191.32421875 24.3125 C-212.75578244 47.80479096 -223.40880208 79.60233023 -222.26855469 111.19140625 C-219.75154297 154.67045305 -195.11116975 182.63797317 -165.68774414 212.07885742 C-163.85155682 213.91968272 -162.01556372 215.76070177 -160.17974854 217.60189819 C-155.23052506 222.56457011 -150.27764697 227.52358329 -145.32390904 232.48174834 C-142.22702758 235.58140903 -139.13087707 238.68179917 -136.03484917 241.78231239 C-127.44663095 250.38269372 -118.85748816 258.98214927 -110.2648859 267.57815075 C-109.71762186 268.12563436 -109.17035781 268.67311797 -108.60651001 269.23719199 C-108.05804923 269.78587105 -107.50958846 270.3345501 -106.94450766 270.89985579 C-105.83336488 272.01144202 -104.72222366 273.12302981 -103.61108398 274.23461914 C-103.05993659 274.78598796 -102.5087892 275.33735678 -101.94094037 275.90543375 C-92.98023186 284.87010342 -84.02631649 293.84152592 -75.07524533 302.81581732 C-65.86521473 312.04954598 -56.64958359 321.2776538 -47.42827982 330.50012475 C-42.25857135 335.67074957 -37.09130347 340.84376203 -31.93022346 346.02300072 C-27.08691722 350.88329004 -22.23601189 355.73587798 -17.37980652 360.58327866 C-15.59738974 362.36492228 -13.81754779 364.14914605 -12.04044914 365.93609428 C-9.61931425 368.36986313 -7.18917093 370.7942616 -4.75648499 373.21647644 C-4.0516273 373.92939053 -3.34676961 374.64230462 -2.6205526 375.37682217 C1.68442826 379.63842179 4.79807277 382.28844362 11.05078125 382.65625 C23.04802362 378.91940401 34.20223952 363.28572527 42.9140625 354.57910156 C44.73161163 352.76618754 46.54935576 350.953469 48.36727905 349.14093018 C53.28316833 344.2385328 58.19536002 339.33244197 63.10671616 334.42550373 C66.18012253 331.35487358 69.25425981 328.28497589 72.32852173 325.21520233 C80.86100316 316.69489826 89.39254754 308.17365837 97.92063904 299.64896011 C98.4647479 299.10507082 99.00885677 298.56118152 99.56945378 298.00081073 C100.11475851 297.45572427 100.66006324 296.91063782 101.22189236 296.34903359 C102.32663762 295.24473178 103.43138444 294.14043152 104.53613281 293.03613281 C105.08410904 292.48837801 105.63208527 291.94062322 106.19666684 291.37626979 C115.07528463 282.50159984 123.96063825 273.63370676 132.84891427 264.76871088 C142.00126486 255.64013668 151.14791808 246.50588566 160.28896999 237.36599708 C165.41070846 232.24517148 170.53479094 227.1267435 175.66519165 222.01459503 C180.49187954 217.20502047 185.3107061 212.38768751 190.12446976 207.56517792 C191.88501547 205.80386518 193.64809492 204.04508059 195.41398239 202.28912354 C222.1411445 175.70338787 241.21665977 145.75947255 241.90673828 107.02978516 C241.7873531 71.37575068 227.57865028 41.30141009 202.59375 16.1875 C185.18956163 -0.20649501 162.51990499 -11.02354372 138.86328125 -14.53125 C138.115625 -14.64210938 137.36796875 -14.75296875 136.59765625 -14.8671875 C105.61960861 -18.66251122 73.26557473 -10.50140304 48.41113281 8.49707031 C43.59175437 12.27456249 39.01522307 16.21091673 34.55078125 20.40625 C26.21634874 28.08161701 17.60693899 29.84953185 6.5390625 29.74609375 C-5.31848562 28.85142221 -12.94056705 22.4800734 -21.26171875 14.65625 C-38.07682027 -0.77108523 -60.59660271 -11.18909486 -83.13671875 -14.53125 C-83.884375 -14.64210938 -84.63203125 -14.75296875 -85.40234375 -14.8671875 C-125.32185011 -19.75798795 -163.88914667 -4.55560994 -191.32421875 24.3125 Z " fill="#000000" transform="translate(246.13671875,72.53125)"/>
</svg>
