<?xml version="1.0" encoding="UTF-8"?>
<svg version="1.1" xmlns="http://www.w3.org/2000/svg" width="512" height="512">
<path d="M0 0 C5.52013044 3.08039076 8.60528998 6.87836995 10.625 12.9375 C10.7967326 14.99547591 10.89151206 17.06038332 10.9375 19.125 C10.97488281 20.21167969 11.01226562 21.29835938 11.05078125 22.41796875 C9.99677326 31.13045685 4.61346332 36.52198001 -1.37286377 42.41638184 C-2.18482484 43.2317606 -2.9967859 44.04713937 -3.83335185 44.88722658 C-6.54778797 47.60823439 -9.27624097 50.31472802 -12.00488281 53.02148438 C-13.95816277 54.97140583 -15.90841458 56.92434582 -17.85879517 58.87716675 C-22.054922 63.07538671 -26.25828561 67.26624511 -30.46671295 71.45213318 C-36.55130344 77.50415735 -42.62476345 83.56725192 -48.69560036 89.63306862 C-58.5464164 99.47513927 -68.40612405 109.30825187 -78.27148438 119.13574219 C-87.85235252 128.67987067 -97.4289929 138.22820885 -107 147.78222656 C-107.59037423 148.3715499 -108.18074846 148.96087324 -108.78901282 149.56805485 C-111.75084522 152.52466695 -114.71259493 155.48136186 -117.67430353 158.43809795 C-142.2283962 182.95075214 -166.79694496 207.44887307 -191.375 231.9375 C-190.00634472 235.00458355 -188.45469706 237.10446458 -186.07907295 239.46834946 C-185.39481212 240.15412559 -184.71055128 240.83990173 -184.00555527 241.54645896 C-183.25148357 242.2919765 -182.49741186 243.03749404 -181.7204895 243.80560303 C-180.92122665 244.60375246 -180.1219638 245.4019019 -179.29848087 246.22423768 C-176.61009942 248.90653085 -173.91464706 251.58160593 -171.21923828 254.25683594 C-169.29339844 256.17442819 -167.36910396 258.09356827 -165.4447937 260.01269531 C-161.29531713 264.14957256 -157.14241841 268.28298828 -152.98740005 272.41429901 C-146.97356531 278.3941808 -140.96715865 284.38148089 -134.96293269 290.3710089 C-125.2129197 300.09712408 -115.45991415 309.82023131 -105.70361328 319.54003906 C-104.82764291 320.41273907 -104.82764291 320.41273907 -103.93397616 321.30306938 C-95.6500163 329.55582171 -87.36307693 337.80557576 -79.07492851 346.05412129 C-78.49155464 346.63470853 -77.90818077 347.21529577 -77.30712891 347.81347656 C-76.4331328 348.68329208 -76.4331328 348.68329208 -75.5414802 349.57067963 C-65.82054702 359.2455158 -56.10736122 368.92808721 -46.40047252 378.61701417 C-40.41450287 384.59128684 -34.42210509 390.55896464 -28.42125247 396.51828864 C-24.30767619 400.60441146 -20.20138044 404.69775666 -16.10070004 408.79682085 C-13.73566783 411.16044745 -11.36649096 413.51948295 -8.99048615 415.87210846 C-6.4121418 418.42606045 -3.8464416 420.99208923 -1.28347778 423.5614624 C-0.53386752 424.29805706 0.21574274 425.03465171 0.98806846 425.79356742 C6.03126476 430.88599634 9.92077139 435.79497877 11.15625 443.0625 C11.0744492 450.58817346 10.21044356 456.0482053 5.01171875 461.6875 C-0.43424104 466.71082433 -5.5436987 468.12325484 -12.8359375 468.30078125 C-21.74637271 467.0259036 -26.51250232 462.51409495 -32.63093567 456.30302429 C-33.52995234 455.41039645 -34.42896901 454.5177686 -35.3552286 453.59809142 C-37.83961878 451.13064237 -40.30823652 448.64792892 -42.77446258 446.16234267 C-45.44092242 443.48042433 -48.12180174 440.81298646 -50.8008728 438.14367676 C-56.04239074 432.91667132 -61.27045257 427.67640399 -66.49399493 422.43144139 C-72.57846872 416.32293597 -78.67580483 410.22733717 -84.77360376 404.13213847 C-95.65301374 393.25641715 -106.52012773 382.36849126 -117.38061523 371.47387695 C-127.91778867 360.90360501 -138.46438429 350.34285118 -149.02124023 339.79223633 C-160.52007002 328.3001711 -172.01426642 316.80351264 -183.49988002 305.29823714 C-184.10725735 304.68982033 -184.71463468 304.08140351 -185.34041738 303.45454982 C-186.56027189 302.23260443 -187.78011635 301.010649 -188.99995062 299.78868341 C-193.245683 295.53605709 -197.49452054 291.2865483 -201.74442482 287.03809166 C-206.92294017 281.86101624 -212.09584875 276.67841225 -217.26178572 271.4887844 C-219.89741674 268.84129675 -222.53535627 266.19622656 -225.17983437 263.55757332 C-228.04608638 260.69744831 -230.90056002 257.82585115 -233.75398254 254.95292664 C-234.59190474 254.12033237 -235.42982693 253.2877381 -236.29314071 252.4299137 C-242.23923926 246.41331974 -245.79698936 241.81919393 -245.875 233.0625 C-245.9059375 231.91007813 -245.936875 230.75765625 -245.96875 229.5703125 C-244.53524182 220.7995059 -237.65006272 214.78068214 -231.58267212 208.75749207 C-230.69720809 207.8666425 -229.81174407 206.97579294 -228.8994478 206.05794793 C-226.45681376 203.6009233 -224.00498869 201.15325883 -221.55145645 198.7071234 C-218.90114894 196.06156094 -216.2594993 193.40737649 -213.61668396 190.7543335 C-208.44447564 185.56495991 -203.26414889 180.38376545 -198.08072974 175.20559218 C-193.86789831 170.99680675 -189.65782531 166.78528079 -185.44968796 162.57180214 C-184.85013308 161.97149884 -184.2505782 161.37119554 -183.63285499 160.75270123 C-182.41479037 159.5331051 -181.19672917 158.31350555 -179.97867136 157.09390263 C-168.56566342 145.66717868 -157.14310309 134.25004142 -145.71749847 122.83591495 C-135.26639647 112.39475152 -124.82678763 101.94218342 -114.39261849 91.48410078 C-103.67284743 80.73994725 -92.94571521 70.0031961 -82.21041906 59.27455407 C-76.18574429 53.2533725 -70.1639702 47.22935835 -64.14979935 41.19768333 C-59.03191346 36.06508647 -53.90706036 30.93957291 -48.77309896 25.82305386 C-46.15453147 23.21300641 -43.53927044 20.59986002 -40.93261147 17.97791481 C-38.10627128 15.1352058 -35.26467244 12.30825749 -32.42129517 9.48258972 C-31.60075987 8.65244942 -30.78022458 7.82230913 -29.93482459 6.96701306 C-21.24227908 -1.6142692 -11.80020214 -5.32855626 0 0 Z " fill="#000000" transform="translate(469.375,23.0625)"/>
<path d="M0 0 C5.52013044 3.08039076 8.60528998 6.87836995 10.625 12.9375 C10.7967326 14.99547591 10.89151206 17.06038332 10.9375 19.125 C10.97488281 20.21167969 11.01226562 21.29835938 11.05078125 22.41796875 C9.99677326 31.13045685 4.61346332 36.52198001 -1.37286377 42.41638184 C-2.18482484 43.2317606 -2.9967859 44.04713937 -3.83335185 44.88722658 C-6.54778797 47.60823439 -9.27624097 50.31472802 -12.00488281 53.02148438 C-13.95816277 54.97140583 -15.90841458 56.92434582 -17.85879517 58.87716675 C-22.054922 63.07538671 -26.25828561 67.26624511 -30.46671295 71.45213318 C-36.55130344 77.50415735 -42.62476345 83.56725192 -48.69560036 89.63306862 C-58.5464164 99.47513927 -68.40612405 109.30825187 -78.27148438 119.13574219 C-87.85235252 128.67987067 -97.4289929 138.22820885 -107 147.78222656 C-107.59037423 148.3715499 -108.18074846 148.96087324 -108.78901282 149.56805485 C-111.75084522 152.52466695 -114.71259493 155.48136186 -117.67430353 158.43809795 C-142.2283962 182.95075214 -166.79694496 207.44887307 -191.375 231.9375 C-190.00634472 235.00458355 -188.45469706 237.10446458 -186.07907295 239.46834946 C-185.39481212 240.15412559 -184.71055128 240.83990173 -184.00555527 241.54645896 C-183.25148357 242.2919765 -182.49741186 243.03749404 -181.7204895 243.80560303 C-180.92122665 244.60375246 -180.1219638 245.4019019 -179.29848087 246.22423768 C-176.61009942 248.90653085 -173.91464706 251.58160593 -171.21923828 254.25683594 C-169.29339844 256.17442819 -167.36910396 258.09356827 -165.4447937 260.01269531 C-161.29531713 264.14957256 -157.14241841 268.28298828 -152.98740005 272.41429901 C-146.97356531 278.3941808 -140.96715865 284.38148089 -134.96293269 290.3710089 C-125.2129197 300.09712408 -115.45991415 309.82023131 -105.70361328 319.54003906 C-104.82764291 320.41273907 -104.82764291 320.41273907 -103.93397616 321.30306938 C-95.6500163 329.55582171 -87.36307693 337.80557576 -79.07492851 346.05412129 C-78.49155464 346.63470853 -77.90818077 347.21529577 -77.30712891 347.81347656 C-76.4331328 348.68329208 -76.4331328 348.68329208 -75.5414802 349.57067963 C-65.82054702 359.2455158 -56.10736122 368.92808721 -46.40047252 378.61701417 C-40.41450287 384.59128684 -34.42210509 390.55896464 -28.42125247 396.51828864 C-24.30767619 400.60441146 -20.20138044 404.69775666 -16.10070004 408.79682085 C-13.73566783 411.16044745 -11.36649096 413.51948295 -8.99048615 415.87210846 C-6.4121418 418.42606045 -3.8464416 420.99208923 -1.28347778 423.5614624 C-0.53386752 424.29805706 0.21574274 425.03465171 0.98806846 425.79356742 C6.03126476 430.88599634 9.92077139 435.79497877 11.15625 443.0625 C11.0744492 450.58817346 10.21044356 456.0482053 5.01171875 461.6875 C-0.43424104 466.71082433 -5.5436987 468.12325484 -12.8359375 468.30078125 C-21.74637271 467.0259036 -26.51250232 462.51409495 -32.63093567 456.30302429 C-33.52995234 455.41039645 -34.42896901 454.5177686 -35.3552286 453.59809142 C-37.83961878 451.13064237 -40.30823652 448.64792892 -42.77446258 446.16234267 C-45.44092242 443.48042433 -48.12180174 440.81298646 -50.8008728 438.14367676 C-56.04239074 432.91667132 -61.27045257 427.67640399 -66.49399493 422.43144139 C-72.57846872 416.32293597 -78.67580483 410.22733717 -84.77360376 404.13213847 C-95.65301374 393.25641715 -106.52012773 382.36849126 -117.38061523 371.47387695 C-127.91778867 360.90360501 -138.46438429 350.34285118 -149.02124023 339.79223633 C-160.52007002 328.3001711 -172.01426642 316.80351264 -183.49988002 305.29823714 C-184.10725735 304.68982033 -184.71463468 304.08140351 -185.34041738 303.45454982 C-186.56027189 302.23260443 -187.78011635 301.010649 -188.99995062 299.78868341 C-193.245683 295.53605709 -197.49452054 291.2865483 -201.74442482 287.03809166 C-206.92294017 281.86101624 -212.09584875 276.67841225 -217.26178572 271.4887844 C-219.89741674 268.84129675 -222.53535627 266.19622656 -225.17983437 263.55757332 C-228.04608638 260.69744831 -230.90056002 257.82585115 -233.75398254 254.95292664 C-234.59190474 254.12033237 -235.42982693 253.2877381 -236.29314071 252.4299137 C-242.23923926 246.41331974 -245.79698936 241.81919393 -245.875 233.0625 C-245.9059375 231.91007813 -245.936875 230.75765625 -245.96875 229.5703125 C-244.53524182 220.7995059 -237.65006272 214.78068214 -231.58267212 208.75749207 C-230.69720809 207.8666425 -229.81174407 206.97579294 -228.8994478 206.05794793 C-226.45681376 203.6009233 -224.00498869 201.15325883 -221.55145645 198.7071234 C-218.90114894 196.06156094 -216.2594993 193.40737649 -213.61668396 190.7543335 C-208.44447564 185.56495991 -203.26414889 180.38376545 -198.08072974 175.20559218 C-193.86789831 170.99680675 -189.65782531 166.78528079 -185.44968796 162.57180214 C-184.85013308 161.97149884 -184.2505782 161.37119554 -183.63285499 160.75270123 C-182.41479037 159.5331051 -181.19672917 158.31350555 -179.97867136 157.09390263 C-168.56566342 145.66717868 -157.14310309 134.25004142 -145.71749847 122.83591495 C-135.26639647 112.39475152 -124.82678763 101.94218342 -114.39261849 91.48410078 C-103.67284743 80.73994725 -92.94571521 70.0031961 -82.21041906 59.27455407 C-76.18574429 53.2533725 -70.1639702 47.22935835 -64.14979935 41.19768333 C-59.03191346 36.06508647 -53.90706036 30.93957291 -48.77309896 25.82305386 C-46.15453147 23.21300641 -43.53927044 20.59986002 -40.93261147 17.97791481 C-38.10627128 15.1352058 -35.26467244 12.30825749 -32.42129517 9.48258972 C-31.60075987 8.65244942 -30.78022458 7.82230913 -29.93482459 6.96701306 C-21.24227908 -1.6142692 -11.80020214 -5.32855626 0 0 Z " fill="#000000" transform="translate(277.375,23.0625)"/>
</svg>
