<?xml version="1.0" encoding="UTF-8"?>
<svg version="1.1" xmlns="http://www.w3.org/2000/svg" width="512" height="512">
<path d="M0 0 C2.19421387 1.38124084 2.19421387 1.38124084 4 4 C4.60743417 7.56594238 4.54592257 11.10285501 4.51757812 14.71264648 C4.5245874 15.80425583 4.53159668 16.89586517 4.53881836 18.02055359 C4.55645318 21.63765761 4.54474812 25.25398141 4.53125 28.87109375 C4.53394507 31.39014333 4.53782761 33.90919189 4.54284668 36.42823792 C4.54875065 41.71683581 4.54053863 47.0051548 4.52148438 52.29370117 C4.49981603 58.37738869 4.50669182 64.46053783 4.52879 70.5442118 C4.54926987 76.42073643 4.54691951 82.29705956 4.53526306 88.17360115 C4.53260837 90.66087992 4.53582087 93.14817254 4.54518127 95.6354351 C4.60561223 116.22501177 2.95945678 132.12706494 -11.68359375 147.7109375 C-21.90579349 157.81247047 -34.77637329 163.32965918 -49.18621826 163.26742554 C-50.36217572 163.27422221 -50.36217572 163.27422221 -51.56188989 163.28115618 C-54.16729781 163.2937338 -56.77249493 163.29218419 -59.37792969 163.29052734 C-61.25437181 163.29651638 -63.13081147 163.30332279 -65.00724792 163.31088257 C-70.08747252 163.32850252 -75.16762969 163.333236 -80.24788189 163.33451414 C-83.42193741 163.33593753 -86.59597588 163.34021048 -89.77002716 163.34550858 C-100.84262682 163.36398916 -111.9151784 163.37218086 -122.98779297 163.37060547 C-133.31261202 163.36940166 -143.63722285 163.3905559 -153.96198916 163.4220928 C-162.82924088 163.44821383 -171.69642435 163.45897466 -180.56371427 163.45769465 C-185.85894432 163.45718418 -191.15398885 163.46291553 -196.4491806 163.48405075 C-201.42331774 163.50336512 -206.3970909 163.50360445 -211.37124062 163.48901749 C-213.19821261 163.48692045 -215.02520701 163.49168326 -216.85214043 163.5037384 C-219.34243132 163.51910957 -221.83145394 163.50993802 -224.32171631 163.49447632 C-225.04777911 163.50476344 -225.77384191 163.51505057 -226.52190661 163.52564943 C-229.88228896 163.47940569 -231.69810158 163.22680053 -234.41739273 161.18393898 C-236.67022379 158.07511618 -237 155.81804221 -237 152 C-235.23358828 149.19810554 -233.96950178 147.48475089 -231 146 C-228.55610345 145.90113166 -226.14051952 145.86274091 -223.69630432 145.86869812 C-222.93464885 145.86658241 -222.17299338 145.86446669 -221.38825744 145.86228687 C-218.82205648 145.8562694 -216.25590445 145.85728828 -213.68969727 145.8581543 C-211.85505591 145.8551238 -210.02041531 145.85160266 -208.18577576 145.84762573 C-204.22649107 145.8397254 -200.26721544 145.83458744 -196.30792427 145.83133507 C-190.04159407 145.82542988 -183.77532082 145.80889227 -177.50901794 145.78999329 C-175.36398033 145.78365537 -173.21894268 145.77732975 -171.07390499 145.77101612 C-169.99940999 145.76785031 -168.92491499 145.7646845 -167.81785953 145.76142275 C-153.2259954 145.71935457 -138.63415702 145.68639369 -124.04223633 145.67407227 C-114.20536354 145.66568056 -104.36863098 145.64314491 -94.53182834 145.6047166 C-89.32740685 145.58498605 -84.12319487 145.57254125 -78.9187336 145.57755089 C-74.01602013 145.58221215 -69.11370278 145.56831127 -64.21106911 145.54053879 C-62.41769969 145.53365066 -60.62428911 145.53347467 -58.83092117 145.54073906 C-44.93971031 145.59129605 -33.38639468 144.26491638 -23 134 C-15.62311493 125.17033669 -13.54367035 116.16894326 -13.63110352 104.86816406 C-13.62733704 103.79223495 -13.62357056 102.71630585 -13.61968994 101.60777283 C-13.61328512 99.28669351 -13.61356135 96.96558793 -13.61987495 94.64450836 C-13.62901757 90.97089678 -13.61872641 87.29779197 -13.60325623 83.62420654 C-13.56323185 73.18518809 -13.56196039 62.74621136 -13.56420898 52.30712891 C-13.56426002 45.91001619 -13.54513262 39.51317941 -13.51487541 33.11614227 C-13.50403772 29.49702765 -13.51618474 25.87843627 -13.52870178 22.25933838 C-13.51980041 20.04430621 -13.5097271 17.82927834 -13.49829102 15.61425781 C-13.50803452 14.60844162 -13.51777802 13.60262543 -13.52781677 12.56632996 C-13.48258631 8.18446879 -13.4284228 5.69695313 -11.09385681 1.89910889 C-7.25448225 -1.58316856 -5.00010276 -1.12071269 0 0 Z " fill="#221E1F" transform="translate(431,198)"/>
<path d="M0 0 C0.78397164 -0.00453111 1.56794327 -0.00906223 2.37567163 -0.01373065 C4.98107955 -0.02630826 7.58627666 -0.02475866 10.19171143 -0.02310181 C12.06815355 -0.02909085 13.94459321 -0.03589726 15.82102966 -0.04345703 C20.90125426 -0.06107699 25.98141143 -0.06581047 31.06166363 -0.0670886 C34.23571915 -0.06851199 37.40975762 -0.07278495 40.5838089 -0.07808304 C51.65640855 -0.09656362 62.72896014 -0.10475532 73.80157471 -0.10317993 C84.12639376 -0.10197612 94.45100459 -0.12313036 104.7757709 -0.15466726 C113.64302262 -0.18078829 122.51020609 -0.19154912 131.377496 -0.19026911 C136.67272606 -0.18975864 141.96777059 -0.19548999 147.26296234 -0.21662521 C152.23709948 -0.23593958 157.21087263 -0.23617891 162.18502235 -0.22159195 C164.01199434 -0.21949491 165.83898874 -0.22425772 167.66592216 -0.23631287 C170.15621306 -0.25168404 172.64523568 -0.24251248 175.13549805 -0.22705078 C176.22459225 -0.24248147 176.22459225 -0.24248147 177.33568835 -0.25822389 C180.6960707 -0.21198016 182.51188332 0.04062501 185.23117447 2.08348656 C187.48400552 5.19230935 187.81378174 7.44938332 187.81378174 11.26742554 C186.04737001 14.06932 184.78328352 15.78267465 181.81378174 17.26742554 C179.36988518 17.36629388 176.95430126 17.40468463 174.51008606 17.39872742 C173.74843059 17.40084313 172.98677512 17.40295884 172.20203918 17.40513867 C169.63583822 17.41115614 167.06968619 17.41013726 164.503479 17.40927124 C162.66883765 17.41230173 160.83419704 17.41582288 158.9995575 17.4197998 C155.04027281 17.42770014 151.08099718 17.4328381 147.12170601 17.43609047 C140.8553758 17.44199566 134.58910256 17.45853327 128.32279968 17.47743225 C126.17776207 17.48377017 124.03272442 17.49009578 121.88768673 17.49640942 C120.81319173 17.49957523 119.73869673 17.50274104 118.63164127 17.50600278 C104.03977714 17.54807097 89.44793875 17.58103184 74.85601807 17.59335327 C65.01914528 17.60174498 55.18241272 17.62428063 45.34561008 17.66270894 C40.14118859 17.68243949 34.9369766 17.69488429 29.73251534 17.68987465 C24.82980187 17.68521339 19.92748452 17.69911427 15.02485085 17.72688675 C13.23148143 17.73377488 11.43807084 17.73395086 9.64470291 17.72668648 C-4.24650795 17.67612948 -15.79982359 19.00250916 -26.18621826 29.26742554 C-33.56310333 38.09708884 -35.64254791 47.09848227 -35.55511475 58.39926147 C-35.55888123 59.47519058 -35.56264771 60.55111969 -35.56652832 61.65965271 C-35.57293314 63.98073203 -35.57265691 66.30183761 -35.56634331 68.62291718 C-35.5572007 72.29652876 -35.56749185 75.96963357 -35.58296204 79.64321899 C-35.62298641 90.08223745 -35.62425787 100.52121418 -35.62200928 110.96029663 C-35.62195824 117.35740935 -35.64108564 123.75424613 -35.67134285 130.15128326 C-35.68218054 133.77039788 -35.67003352 137.38898926 -35.65751648 141.00808716 C-35.66641785 143.22311932 -35.67649117 145.4381472 -35.68792725 147.65316772 C-35.67818375 148.65898392 -35.66844025 149.66480011 -35.65840149 150.70109558 C-35.70300555 155.02227243 -35.78485245 157.58219068 -38.0025177 161.36831665 C-41.04899252 164.01775839 -43.18649334 164.26742554 -47.18621826 164.26742554 C-50.13377558 162.92180154 -51.72899098 162.1818801 -53.18621826 159.26742554 C-53.2867784 157.77637021 -53.32561946 156.28093657 -53.33338928 154.78651428 C-53.34054459 153.84333847 -53.34769989 152.90016266 -53.35507202 151.92840576 C-53.35776093 150.89003571 -53.36044983 149.85166565 -53.36322021 148.78182983 C-53.36979141 147.69051254 -53.37636261 146.59919525 -53.38313293 145.47480774 C-53.40291137 141.84708593 -53.41454303 138.21940574 -53.42449951 134.59164429 C-53.42857504 133.35199228 -53.43265057 132.11234028 -53.43684959 130.83512306 C-53.45558075 124.9431227 -53.47013613 119.05113555 -53.47846156 113.15911263 C-53.48819655 106.38256342 -53.51441074 99.60634412 -53.55496246 92.82991093 C-53.58896127 86.94383461 -53.60062352 81.05786704 -53.60466576 75.17170143 C-53.60951829 72.67881864 -53.62109389 70.18593901 -53.63970375 67.69312096 C-53.81539812 42.58334002 -53.81539812 42.58334002 -49.18621826 32.26742554 C-48.75186966 31.28702805 -48.31752106 30.30663055 -47.87001038 29.29652405 C-41.67421039 16.10197413 -31.17419877 8.88537481 -18.38861084 3.05429077 C-12.2320124 0.8546769 -6.51985655 -0.02815814 0 0 Z " fill="#221E1F" transform="translate(130.18621826171875,150.73257446289063)"/>
<path d="M0 0 C2.60772256 1.08015575 5.05969184 2.19198983 7.56640625 3.46484375 C8.27461517 3.81400848 8.9828241 4.16317322 9.7124939 4.5229187 C12.00021886 5.652487 14.28126326 6.79489394 16.5625 7.9375 C19.70853027 9.49708067 22.85788847 11.04986383 26.0078125 12.6015625 C26.78207077 12.9839357 27.55632904 13.3663089 28.35404968 13.76026917 C35.67952124 17.36469189 43.09757815 20.73736078 50.60180664 23.95483398 C54.76394413 25.78181754 58.13925443 27.31547952 61 31 C62.08369327 34.39557226 62.36980946 36.150254 60.9375 39.44140625 C58.47119904 42.69831579 55.64250301 44.21894212 52.0625 46 C50.97702881 46.5576001 50.97702881 46.5576001 49.86962891 47.12646484 C40.24258533 51.99999579 30.41247271 56.46855816 20.6015625 60.95703125 C16.75697723 62.71727489 12.93368872 64.50228278 9.1484375 66.38671875 C8.13160889 66.88727783 8.13160889 66.88727783 7.09423828 67.39794922 C5.41681103 68.22977904 3.74701344 69.07695006 2.078125 69.92578125 C-2.01132509 71.35293705 -4.67161578 71.46876226 -9 71 C-11.85826207 68.8775094 -12.87698623 67.68921414 -13.50793457 64.1541748 C-13.51111694 63.05593384 -13.51429932 61.95769287 -13.51757812 60.82617188 C-13.53018677 59.57807739 -13.54279541 58.32998291 -13.55578613 57.04406738 C-13.54862628 55.6856225 -13.54042229 54.32718278 -13.53125 52.96875 C-13.53394569 51.57157115 -13.53782876 50.17439412 -13.54284668 48.77722168 C-13.54873826 45.85178736 -13.54019063 42.92684221 -13.52148438 40.00146484 C-13.49869394 36.25518609 -13.511819 32.51005355 -13.53577423 28.76381683 C-13.55024205 25.87953078 -13.54562195 22.99551562 -13.53526306 20.11122131 C-13.53259844 18.73014693 -13.5358563 17.34904779 -13.54518127 15.96800232 C-13.55536088 14.03661583 -13.53708887 12.10514289 -13.51757812 10.17382812 C-13.51439575 9.07558716 -13.51121338 7.97734619 -13.50793457 6.8458252 C-12.88291425 3.34399902 -11.73824228 2.19388425 -9 0 C-5.82742726 -1.58628637 -3.42488142 -0.69340756 0 0 Z M4 22 C4 30.91 4 39.82 4 49 C8.14999294 47.61666902 11.73125486 46.27591057 15.6171875 44.3984375 C16.63554687 43.90859375 17.65390625 43.41875 18.703125 42.9140625 C19.74984375 42.40617187 20.7965625 41.89828125 21.875 41.375 C22.94492187 40.859375 24.01484375 40.34375 25.1171875 39.8125 C27.74635682 38.54486479 30.37388302 37.2739434 33 36 C30.04023769 33.63418589 27.06300504 31.93528876 23.6484375 30.30078125 C22.12476563 29.57084961 22.12476563 29.57084961 20.5703125 28.82617188 C19.51585937 28.32666016 18.46140625 27.82714844 17.375 27.3125 C16.3128125 26.80138672 15.250625 26.29027344 14.15625 25.76367188 C9.28107614 23.1052952 9.28107614 23.1052952 4 22 Z " fill="#221E1F" transform="translate(340,124)"/>
<path d="M0 0 C2.85826207 2.1224906 3.87698623 3.31078586 4.50793457 6.8458252 C4.51111694 7.94406616 4.51429932 9.04230713 4.51757812 10.17382812 C4.53018677 11.42192261 4.54279541 12.67001709 4.55578613 13.95593262 C4.54862628 15.3143775 4.54042229 16.67281722 4.53125 18.03125 C4.53394569 19.42842885 4.53782876 20.82560588 4.54284668 22.22277832 C4.54873826 25.14821264 4.54019063 28.07315779 4.52148438 30.99853516 C4.49869394 34.74481391 4.511819 38.48994645 4.53577423 42.23618317 C4.55024205 45.12046922 4.54562195 48.00448438 4.53526306 50.88877869 C4.53259844 52.26985307 4.5358563 53.65095221 4.54518127 55.03199768 C4.55536088 56.96338417 4.53708887 58.89485711 4.51757812 60.82617188 C4.51439575 61.92441284 4.51121338 63.02265381 4.50793457 64.1541748 C3.88010369 67.6717478 2.78937091 68.83305511 0 71 C-4.63399981 72.41502424 -7.24482464 71.88727235 -11.55078125 69.81640625 C-12.62658447 69.30835449 -13.7023877 68.80030273 -14.81079102 68.27685547 C-16.54413696 67.42824951 -16.54413696 67.42824951 -18.3125 66.5625 C-19.52927702 65.97939974 -20.7466574 65.39755708 -21.96459961 64.81689453 C-24.58054056 63.56597649 -27.1912509 62.30487784 -29.79882812 61.03662109 C-33.45093397 59.26193197 -37.11441802 57.51208652 -40.78144836 55.76847839 C-43.80618467 54.32938999 -46.82765099 52.88353899 -49.84823608 51.4357605 C-51.32039886 50.73050937 -52.79323589 50.02666391 -54.26675415 49.32424927 C-56.3385733 48.33460675 -58.4061047 47.33652396 -60.47265625 46.3359375 C-61.66125244 45.76407715 -62.84984863 45.1922168 -64.07446289 44.60302734 C-67.91144228 42.50058166 -69.5973744 41.32291268 -70.875 37.125 C-71.0304346 33.23913508 -70.34059285 32.0799753 -68 29 C-65.68694169 27.47188922 -63.52725378 26.2262194 -61.0625 25 C-60.33885254 24.6282666 -59.61520508 24.2565332 -58.86962891 23.87353516 C-49.24258533 19.00000421 -39.41247271 14.53144184 -29.6015625 10.04296875 C-25.75697723 8.28272511 -21.93368872 6.49771722 -18.1484375 4.61328125 C-17.47055176 4.2795752 -16.79266602 3.94586914 -16.09423828 3.60205078 C-14.41681103 2.77022096 -12.74701344 1.92304994 -11.078125 1.07421875 C-6.98867491 -0.35293705 -4.32838422 -0.46876226 0 0 Z M-20.22265625 24.84375 C-20.84273056 25.13229858 -21.46280487 25.42084717 -22.10166931 25.71813965 C-24.08944892 26.64364415 -26.07598157 27.57179202 -28.0625 28.5 C-29.40681997 29.12647607 -30.75121998 29.75278043 -32.09570312 30.37890625 C-35.39806774 31.91727663 -38.69931873 33.45802064 -42 35 C-39.04023769 37.36581411 -36.06300504 39.06471124 -32.6484375 40.69921875 C-31.63265625 41.18583984 -30.616875 41.67246094 -29.5703125 42.17382812 C-28.51585937 42.67333984 -27.46140625 43.17285156 -26.375 43.6875 C-25.3128125 44.19861328 -24.250625 44.70972656 -23.15625 45.23632812 C-18.28107614 47.8947048 -18.28107614 47.8947048 -13 49 C-13 40.09 -13 31.18 -13 22 C-15.35724362 22 -18.17963263 23.89094975 -20.22265625 24.84375 Z " fill="#221E1F" transform="translate(181,317)"/>
</svg>
