<svg width="512" height="512" version="1.1" xmlns="http://www.w3.org/2000/svg" desc="Created with imagetracer.js version 1.2.6" ><path fill="rgb(0,0,0)" stroke="rgb(0,0,0)" stroke-width="1" opacity="0.8588235294117647" d="M 503.5 32 L 505.5 35 L 503.5 32 Z " /><path fill="rgb(0,0,0)" stroke="rgb(0,0,0)" stroke-width="1" opacity="0.8588235294117647" d="M 480.5 34 L 434.5 81 L 480.5 34 Z " /><path fill="rgb(0,0,0)" stroke="rgb(0,0,0)" stroke-width="1" opacity="0.8588235294117647" d="M 507.5 36 L 508.5 38 L 507.5 36 Z " /><path fill="rgb(0,0,0)" stroke="rgb(0,0,0)" stroke-width="1" opacity="0.8588235294117647" d="M 511.5 44 L 512 46.5 L 511 46.5 L 511.5 44 Z " /><path fill="rgb(0,0,0)" stroke="rgb(0,0,0)" stroke-width="1" opacity="0.8588235294117647" d="M 511.5 49 L 512 51.5 L 511 51.5 L 511.5 49 Z " /><path fill="rgb(0,0,0)" stroke="rgb(0,0,0)" stroke-width="1" opacity="0.8588235294117647" d="M 196.5 51 L 200 51.5 L 196.5 52 L 196.5 51 Z " /><path fill="rgb(0,0,0)" stroke="rgb(0,0,0)" stroke-width="1" opacity="0.8588235294117647" d="M 231.5 51 L 235 51.5 L 231.5 52 L 231.5 51 Z " /><path fill="rgb(0,0,0)" stroke="rgb(0,0,0)" stroke-width="1" opacity="0.8588235294117647" d="M 187.5 52 L 190 52.5 L 187.5 53 L 187.5 52 Z " /><path fill="rgb(0,0,0)" stroke="rgb(0,0,0)" stroke-width="1" opacity="0.8588235294117647" d="M 242.5 52 L 245 52.5 L 242.5 53 L 242.5 52 Z " /><path fill="rgb(0,0,0)" stroke="rgb(0,0,0)" stroke-width="1" opacity="0.8588235294117647" d="M 249.5 53 L 252 53.5 L 249.5 54 L 249.5 53 Z " /><path fill="rgb(0,0,0)" stroke="rgb(0,0,0)" stroke-width="1" opacity="0.8588235294117647" d="M 200.5 88 L 207 88.5 L 200.5 89 L 200.5 88 Z " /><path fill="rgb(0,0,0)" stroke="rgb(0,0,0)" stroke-width="1" opacity="0.8588235294117647" d="M 229.5 88 L 232 88.5 L 229.5 89 L 229.5 88 Z " /><path fill="rgb(0,0,0)" stroke="rgb(0,0,0)" stroke-width="1" opacity="0.8588235294117647" d="M 89.5 91 L 88.5 93 L 89.5 91 Z " /><path fill="rgb(0,0,0)" stroke="rgb(0,0,0)" stroke-width="1" opacity="0.8588235294117647" d="M 179.5 91 L 182 91.5 L 179.5 92 L 179.5 91 Z " /><path fill="rgb(0,0,0)" stroke="rgb(0,0,0)" stroke-width="1" opacity="0.8588235294117647" d="M 342.5 91 L 343.5 93 L 342.5 91 Z " /><path fill="rgb(0,0,0)" stroke="rgb(0,0,0)" stroke-width="1" opacity="0.8588235294117647" d="M 85.5 94 L 84.5 96 L 85.5 94 Z " /><path fill="rgb(0,0,0)" stroke="rgb(0,0,0)" stroke-width="1" opacity="0.8588235294117647" d="M 346.5 94 L 347.5 96 L 346.5 94 Z " /><path fill="rgb(0,0,0)" stroke="rgb(0,0,0)" stroke-width="1" opacity="0.8588235294117647" d="M 350.5 97 L 352.5 100 L 350.5 97 Z " /><path fill="rgb(0,0,0)" stroke="rgb(0,0,0)" stroke-width="1" opacity="0.8588235294117647" d="M 80.5 98 L 78.5 101 L 80.5 98 Z " /><path fill="rgb(0,0,0)" stroke="rgb(0,0,0)" stroke-width="1" opacity="0.8588235294117647" d="M 356.5 102 L 359.5 106 L 356.5 102 Z " /><path fill="rgb(0,0,0)" stroke="rgb(0,0,0)" stroke-width="1" opacity="0.8588235294117647" d="M 74.5 103 L 70.5 108 L 74.5 103 Z " /><path fill="rgb(0,0,0)" stroke="rgb(0,0,0)" stroke-width="1" opacity="0.8588235294117647" d="M 125.5 112 L 124.5 114 L 125.5 112 Z " /><path fill="rgb(0,0,0)" stroke="rgb(0,0,0)" stroke-width="1" opacity="0.8588235294117647" d="M 114.5 119 L 113.5 121 L 114.5 119 Z " /><path fill="rgb(0,0,0)" stroke="rgb(0,0,0)" stroke-width="1" opacity="0.8588235294117647" d="M 57.5 120 L 53.5 125 L 57.5 120 Z " /><path fill="rgb(0,0,0)" stroke="rgb(0,0,0)" stroke-width="1" opacity="0.8588235294117647" d="M 320.5 121 L 321.5 123 L 320.5 121 Z " /><path fill="rgb(0,0,0)" stroke="rgb(0,0,0)" stroke-width="1" opacity="0.8588235294117647" d="M 110.5 122 L 109.5 124 L 110.5 122 Z " /><path fill="rgb(0,0,0)" stroke="rgb(0,0,0)" stroke-width="1" opacity="0.8588235294117647" d="M 377.5 123 L 379.5 126 L 377.5 123 Z " /><path fill="rgb(0,0,0)" stroke="rgb(0,0,0)" stroke-width="1" opacity="0.8588235294117647" d="M 324.5 124 L 325.5 126 L 324.5 124 Z " /><path fill="rgb(0,0,0)" stroke="rgb(0,0,0)" stroke-width="1" opacity="0.8588235294117647" d="M 106.5 125 L 105.5 127 L 106.5 125 Z " /><path fill="rgb(0,0,0)" stroke="rgb(0,0,0)" stroke-width="1" opacity="0.8588235294117647" d="M 329.5 128 L 331.5 131 L 329.5 128 Z " /><path fill="rgb(0,0,0)" stroke="rgb(0,0,0)" stroke-width="1" opacity="0.8588235294117647" d="M 49.5 129 L 48.5 131 L 49.5 129 Z " /><path fill="rgb(0,0,0)" stroke="rgb(0,0,0)" stroke-width="1" opacity="0.8588235294117647" d="M 101.5 129 L 100.5 131 L 101.5 129 Z " /><path fill="rgb(0,0,0)" stroke="rgb(0,0,0)" stroke-width="1" opacity="0.8588235294117647" d="M 436.5 130 L 340.5 227 L 436.5 130 Z " /><path fill="rgb(0,0,0)" stroke="rgb(0,0,0)" stroke-width="1" opacity="0.8588235294117647" d="M 45.5 134 L 44.5 136 L 45.5 134 Z " /><path fill="rgb(0,0,0)" stroke="rgb(0,0,0)" stroke-width="1" opacity="0.8588235294117647" d="M 336.5 134 L 348.5 147 L 336.5 134 Z " /><path fill="rgb(0,0,0)" stroke="rgb(0,0,0)" stroke-width="1" opacity="0.8588235294117647" d="M 42.5 138 L 41.5 140 L 42.5 138 Z " /><path fill="rgb(0,0,0)" stroke="rgb(0,0,0)" stroke-width="1" opacity="0.8588235294117647" d="M 91.5 138 L 84.5 146 L 91.5 138 Z " /><path fill="rgb(0,0,0)" stroke="rgb(0,0,0)" stroke-width="1" opacity="0.8588235294117647" d="M 81.5 149 L 79.5 152 L 81.5 149 Z " /><path fill="rgb(0,0,0)" stroke="rgb(0,0,0)" stroke-width="1" opacity="0.8588235294117647" d="M 352.5 151 L 354.5 154 L 352.5 151 Z " /><path fill="rgb(0,0,0)" stroke="rgb(0,0,0)" stroke-width="1" opacity="0.8588235294117647" d="M 75.5 156 L 73.5 159 L 75.5 156 Z " /><path fill="rgb(0,0,0)" stroke="rgb(0,0,0)" stroke-width="1" opacity="0.8588235294117647" d="M 72.5 160 L 71.5 162 L 72.5 160 Z " /><path fill="rgb(0,0,0)" stroke="rgb(0,0,0)" stroke-width="1" opacity="0.8588235294117647" d="M 348.5 165 L 241.5 273 L 348.5 165 Z " /><path fill="rgb(0,0,0)" stroke="rgb(0,0,0)" stroke-width="1" opacity="0.8588235294117647" d="M 113.5 225 L 114 231.5 L 113 231.5 L 113.5 225 Z " /><path fill="rgb(0,0,0)" stroke="rgb(0,0,0)" stroke-width="1" opacity="0.8588235294117647" d="M 2.5 234 L 3 236.5 L 2 236.5 L 2.5 234 Z " /><path fill="rgb(0,0,0)" stroke="rgb(0,0,0)" stroke-width="1" opacity="0.8588235294117647" d="M 117.5 240 L 149.5 273 L 117.5 240 Z " /><path fill="rgb(0,0,0)" stroke="rgb(0,0,0)" stroke-width="1" opacity="0.8588235294117647" d="M 1.5 242 L 2 244.5 L 1 244.5 L 1.5 242 Z " /><path fill="rgb(0,0,0)" stroke="rgb(0,0,0)" stroke-width="1" opacity="0.8588235294117647" d="M 38.5 246 L 39 249.5 L 38 249.5 L 38.5 246 Z " /><path fill="rgb(0,0,0)" stroke="rgb(0,0,0)" stroke-width="1" opacity="0.8588235294117647" d="M 402.5 251 L 401.5 253 L 402.5 251 Z " /><path fill="rgb(0,0,0)" stroke="rgb(0,0,0)" stroke-width="1" opacity="0.8588235294117647" d="M 425.5 252 L 427.5 255 L 425.5 252 Z " /><path fill="rgb(0,0,0)" stroke="rgb(0,0,0)" stroke-width="1" opacity="0.8588235294117647" d="M 0.5 254 L 1 265.5 L 0 265.5 L 0.5 254 Z " /><path fill="rgb(0,0,0)" stroke="rgb(0,0,0)" stroke-width="1" opacity="0.8588235294117647" d="M 399.5 254 L 398.5 256 L 399.5 254 Z " /><path fill="rgb(0,0,0)" stroke="rgb(0,0,0)" stroke-width="1" opacity="0.8588235294117647" d="M 37.5 258 L 38 270.5 L 37 270.5 L 37.5 258 Z " /><path fill="rgb(0,0,0)" stroke="rgb(0,0,0)" stroke-width="1" opacity="0.8588235294117647" d="M 190.5 261 L 220.5 292 L 190.5 261 Z " /><path fill="rgb(0,0,0)" stroke="rgb(0,0,0)" stroke-width="1" opacity="0.8588235294117647" d="M 394.5 270 L 395 278.5 L 394 278.5 L 394.5 270 Z " /><path fill="rgb(0,0,0)" stroke="rgb(0,0,0)" stroke-width="1" opacity="0.8588235294117647" d="M 0.5 272 L 1 278.5 L 0 278.5 L 0.5 272 Z " /><path fill="rgb(0,0,0)" stroke="rgb(0,0,0)" stroke-width="1" opacity="0.8588235294117647" d="M 431.5 273 L 432 281.5 L 431 281.5 L 431.5 273 Z " /><path fill="rgb(0,0,0)" stroke="rgb(0,0,0)" stroke-width="1" opacity="0.8588235294117647" d="M 38.5 283 L 39 285.5 L 38 285.5 L 38.5 283 Z " /><path fill="rgb(0,0,0)" stroke="rgb(0,0,0)" stroke-width="1" opacity="0.8588235294117647" d="M 393.5 286 L 394 288.5 L 393 288.5 L 393.5 286 Z " /><path fill="rgb(0,0,0)" stroke="rgb(0,0,0)" stroke-width="1" opacity="0.8588235294117647" d="M 430.5 289 L 431 291.5 L 430 291.5 L 430.5 289 Z " /><path fill="rgb(0,0,0)" stroke="rgb(0,0,0)" stroke-width="1" opacity="0.8588235294117647" d="M 39.5 292 L 40 294.5 L 39 294.5 L 39.5 292 Z " /><path fill="rgb(0,0,0)" stroke="rgb(0,0,0)" stroke-width="1" opacity="0.8588235294117647" d="M 2.5 295 L 3 297.5 L 2 297.5 L 2.5 295 Z " /><path fill="rgb(0,0,0)" stroke="rgb(0,0,0)" stroke-width="1" opacity="0.8588235294117647" d="M 251.5 314 L 232.5 334 L 251.5 314 Z " /><path fill="rgb(0,0,0)" stroke="rgb(0,0,0)" stroke-width="1" opacity="0.8588235294117647" d="M 210.5 333 L 211.5 335 L 210.5 333 Z " /><path fill="rgb(0,0,0)" stroke="rgb(0,0,0)" stroke-width="1" opacity="0.8588235294117647" d="M 63.5 359 L 64.5 361 L 63.5 359 Z " /><path fill="rgb(0,0,0)" stroke="rgb(0,0,0)" stroke-width="1" opacity="0.8588235294117647" d="M 71.5 371 L 72.5 373 L 71.5 371 Z " /><path fill="rgb(0,0,0)" stroke="rgb(0,0,0)" stroke-width="1" opacity="0.8588235294117647" d="M 360.5 371 L 359.5 373 L 360.5 371 Z " /><path fill="rgb(0,0,0)" stroke="rgb(0,0,0)" stroke-width="1" opacity="0.8588235294117647" d="M 357.5 375 L 355.5 378 L 357.5 375 Z " /><path fill="rgb(0,0,0)" stroke="rgb(0,0,0)" stroke-width="1" opacity="0.8588235294117647" d="M 75.5 376 L 76.5 378 L 75.5 376 Z " /><path fill="rgb(0,0,0)" stroke="rgb(0,0,0)" stroke-width="1" opacity="0.8588235294117647" d="M 78.5 380 L 80.5 383 L 78.5 380 Z " /><path fill="rgb(0,0,0)" stroke="rgb(0,0,0)" stroke-width="1" opacity="0.8588235294117647" d="M 353.5 380 L 351.5 383 L 353.5 380 Z " /><path fill="rgb(0,0,0)" stroke="rgb(0,0,0)" stroke-width="1" opacity="0.8588235294117647" d="M 86.5 389 L 92.5 396 L 86.5 389 Z " /><path fill="rgb(0,0,0)" stroke="rgb(0,0,0)" stroke-width="1" opacity="0.8588235294117647" d="M 39.5 390 L 40.5 392 L 39.5 390 Z " /><path fill="rgb(0,0,0)" stroke="rgb(0,0,0)" stroke-width="1" opacity="0.8588235294117647" d="M 342.5 392 L 339.5 396 L 342.5 392 Z " /><path fill="rgb(0,0,0)" stroke="rgb(0,0,0)" stroke-width="1" opacity="0.8588235294117647" d="M 391.5 392 L 390.5 394 L 391.5 392 Z " /><path fill="rgb(0,0,0)" stroke="rgb(0,0,0)" stroke-width="1" opacity="0.8588235294117647" d="M 42.5 394 L 43.5 396 L 42.5 394 Z " /><path fill="rgb(0,0,0)" stroke="rgb(0,0,0)" stroke-width="1" opacity="0.8588235294117647" d="M 388.5 396 L 386.5 399 L 388.5 396 Z " /><path fill="rgb(0,0,0)" stroke="rgb(0,0,0)" stroke-width="1" opacity="0.8588235294117647" d="M 45.5 398 L 46.5 400 L 45.5 398 Z " /><path fill="rgb(0,0,0)" stroke="rgb(0,0,0)" stroke-width="1" opacity="0.8588235294117647" d="M 334.5 399 L 331.5 403 L 334.5 399 Z " /><path fill="rgb(0,0,0)" stroke="rgb(0,0,0)" stroke-width="1" opacity="0.8588235294117647" d="M 99.5 401 L 102.5 405 L 99.5 401 Z " /><path fill="rgb(0,0,0)" stroke="rgb(0,0,0)" stroke-width="1" opacity="0.8588235294117647" d="M 384.5 401 L 383.5 403 L 384.5 401 Z " /><path fill="rgb(0,0,0)" stroke="rgb(0,0,0)" stroke-width="1" opacity="0.8588235294117647" d="M 48.5 402 L 49.5 404 L 48.5 402 Z " /><path fill="rgb(0,0,0)" stroke="rgb(0,0,0)" stroke-width="1" opacity="0.8588235294117647" d="M 381.5 405 L 377.5 410 L 381.5 405 Z " /><path fill="rgb(0,0,0)" stroke="rgb(0,0,0)" stroke-width="1" opacity="0.8588235294117647" d="M 105.5 406 L 106.5 408 L 105.5 406 Z " /><path fill="rgb(0,0,0)" stroke="rgb(0,0,0)" stroke-width="1" opacity="0.8588235294117647" d="M 326.5 406 L 325.5 408 L 326.5 406 Z " /><path fill="rgb(0,0,0)" stroke="rgb(0,0,0)" stroke-width="1" opacity="0.8588235294117647" d="M 54.5 409 L 59.5 415 L 54.5 409 Z " /><path fill="rgb(0,0,0)" stroke="rgb(0,0,0)" stroke-width="1" opacity="0.8588235294117647" d="M 109.5 409 L 110.5 411 L 109.5 409 Z " /><path fill="rgb(0,0,0)" stroke="rgb(0,0,0)" stroke-width="1" opacity="0.8588235294117647" d="M 319.5 411 L 318.5 413 L 319.5 411 Z " /><path fill="rgb(0,0,0)" stroke="rgb(0,0,0)" stroke-width="1" opacity="0.8588235294117647" d="M 119.5 416 L 120.5 418 L 119.5 416 Z " /><path fill="rgb(0,0,0)" stroke="rgb(0,0,0)" stroke-width="1" opacity="0.8588235294117647" d="M 369.5 418 L 365.5 423 L 369.5 418 Z " /><path fill="rgb(0,0,0)" stroke="rgb(0,0,0)" stroke-width="1" opacity="0.8588235294117647" d="M 67.5 422 L 72.5 428 L 67.5 422 Z " /><path fill="rgb(0,0,0)" stroke="rgb(0,0,0)" stroke-width="1" opacity="0.8588235294117647" d="M 360.5 426 L 356.5 431 L 360.5 426 Z " /><path fill="rgb(0,0,0)" stroke="rgb(0,0,0)" stroke-width="1" opacity="0.8588235294117647" d="M 78.5 432 L 79.5 434 L 78.5 432 Z " /><path fill="rgb(0,0,0)" stroke="rgb(0,0,0)" stroke-width="1" opacity="0.8588235294117647" d="M 351.5 434 L 350.5 436 L 351.5 434 Z " /><path fill="rgb(0,0,0)" stroke="rgb(0,0,0)" stroke-width="1" opacity="0.8588235294117647" d="M 83.5 436 L 84.5 438 L 83.5 436 Z " /><path fill="rgb(0,0,0)" stroke="rgb(0,0,0)" stroke-width="1" opacity="0.8588235294117647" d="M 347.5 437 L 346.5 439 L 347.5 437 Z " /><path fill="rgb(0,0,0)" stroke="rgb(0,0,0)" stroke-width="1" opacity="0.8588235294117647" d="M 87.5 439 L 88.5 441 L 87.5 439 Z " /><path fill="rgb(0,0,0)" stroke="rgb(0,0,0)" stroke-width="1" opacity="0.8588235294117647" d="M 343.5 440 L 342.5 442 L 343.5 440 Z " /><path fill="rgb(0,0,0)" stroke="rgb(0,0,0)" stroke-width="1" opacity="0.8588235294117647" d="M 91.5 442 L 92.5 444 L 91.5 442 Z " /><path fill="rgb(0,0,0)" stroke="rgb(0,0,0)" stroke-width="1" opacity="0.8588235294117647" d="M 190.5 443 L 193 443.5 L 190.5 444 L 190.5 443 Z " /><path fill="rgb(0,0,0)" stroke="rgb(0,0,0)" stroke-width="1" opacity="0.8588235294117647" d="M 339.5 443 L 338.5 445 L 339.5 443 Z " /><path fill="rgb(0,0,0)" stroke="rgb(0,0,0)" stroke-width="1" opacity="0.8588235294117647" d="M 94.5 444 L 95.5 446 L 94.5 444 Z " /><path fill="rgb(0,0,0)" stroke="rgb(0,0,0)" stroke-width="1" opacity="0.8588235294117647" d="M 199.5 444 L 202 444.5 L 199.5 445 L 199.5 444 Z " /><path fill="rgb(0,0,0)" stroke="rgb(0,0,0)" stroke-width="1" opacity="0.8588235294117647" d="M 227.5 444 L 232 444.5 L 227.5 445 L 227.5 444 Z " /><path fill="rgb(0,0,0)" stroke="rgb(0,0,0)" stroke-width="1" opacity="0.8588235294117647" d="M 328.5 450 L 327.5 452 L 328.5 450 Z " /><path fill="rgb(0,0,0)" stroke="rgb(0,0,0)" stroke-width="1" opacity="0.8588235294117647" d="M 250.5 479 L 253 479.5 L 250.5 480 L 250.5 479 Z " /><path fill="rgb(0,0,0)" stroke="rgb(0,0,0)" stroke-width="1" opacity="0.8588235294117647" d="M 187.5 480 L 190 480.5 L 187.5 481 L 187.5 480 Z " /><path fill="rgb(0,0,0)" stroke="rgb(0,0,0)" stroke-width="1" opacity="0.8588235294117647" d="M 242.5 480 L 245 480.5 L 242.5 481 L 242.5 480 Z " /><path fill="rgb(0,0,0)" stroke="rgb(0,0,0)" stroke-width="1" opacity="0.8588235294117647" d="M 195.5 481 L 198 481.5 L 195.5 482 L 195.5 481 Z " /><path fill="rgb(0,0,0)" stroke="rgb(0,0,0)" stroke-width="1" opacity="0.8588235294117647" d="M 234.5 481 L 237 481.5 L 234.5 482 L 234.5 481 Z " /><path fill="rgb(0,0,0)" stroke="rgb(0,0,0)" stroke-width="1" opacity="0.8588235294117647" d="M 212.5 482 L 219 482.5 L 212.5 483 L 212.5 482 Z " /><path fill="rgb(0,0,0)" stroke="rgb(0,0,0)" stroke-width="1" opacity="0" d="M 0 0 L 511.5 0 L 512 0.5 L 512 42.5 L 511 42.5 L 507 34 L 500.5 30 L 489.5 29 L 482.5 32 L 383.5 129 L 360.5 105 Q 331 78.5 290.5 63 L 275.5 58 L 247.5 52 L 228.5 51 L 227.5 50 L 204.5 50 L 203.5 51 L 192.5 51 L 191.5 52 L 184.5 52 L 168.5 55 L 138.5 64 L 124.5 70 Q 85 89 57 119.5 Q 33.2 144.7 18 178.5 L 8 205.5 L 3 226.5 L 0.5 248 L 0 0 Z " /><path fill="rgb(0,0,0)" stroke="rgb(0,0,0)" stroke-width="1" opacity="0" d="M 511.5 53 L 512 512 L 0 512 L 0 285.5 L 1 285.5 L 2 301.5 L 4 306.5 L 6 320.5 L 18 354.5 Q 36.5 394.5 66.5 423 Q 98.1 453.9 143.5 471 L 146.5 471 L 159.5 476 L 183.5 481 L 191.5 481 L 200.5 483 L 228.5 483 L 229.5 482 L 240.5 482 L 241.5 481 L 254.5 480 Q 259.9 476.9 268.5 477 L 303.5 465 Q 347.8 444.8 378 410.5 Q 392.1 395.1 403 376.5 L 413 357.5 L 421 337.5 L 430 301.5 L 431 287.5 L 432 286.5 L 432 267.5 L 433 266.5 L 430 256.5 L 423.5 250 L 419.5 248 L 412.5 247 L 407.5 248 L 399 253 L 394 264.5 L 394 281.5 L 393 282.5 L 393 290.5 L 390 306.5 L 381 334.5 Q 365.9 370.4 339.5 395 Q 316.4 417.4 284.5 431 L 253.5 441 L 235.5 443 L 234.5 444 L 216.5 445 L 215.5 444 L 197.5 444 L 196.5 443 L 188.5 443 L 178.5 441 L 144.5 430 Q 110.8 414.7 87 389.5 Q 61.7 363.8 48 326.5 L 40 295.5 L 40 288.5 L 38 279.5 L 38 255.5 L 39 254.5 L 39 243.5 L 43 222.5 L 54 191.5 Q 68.1 161.6 90.5 140 Q 114 116 147.5 102 L 163.5 96 L 179.5 92 L 190.5 91 L 197.5 89 L 214.5 89 L 217.5 88 L 218.5 89 L 234.5 89 L 235.5 90 L 253.5 92 L 287.5 103 Q 323.3 119.3 348 146.5 L 356 157.5 L 250.5 263 L 220.5 291 L 143.5 213 Q 138.3 208.2 126.5 210 Q 119.8 212.3 116 217.5 Q 111.7 222.7 113 233.5 L 116 239.5 L 209.5 334 Q 214 338.5 223.5 338 L 231.5 335 L 244.5 323 L 509 59.5 L 511.5 53 Z " /><path fill="rgb(0,0,0)" stroke="rgb(0,0,0)" stroke-width="1" opacity="1" d="M 488.5 30 L 497.5 30 L 507 35 Q 511.3 39.5 512 48.5 L 508 59.5 L 437.5 130 L 231.5 334 Q 227.1 338.1 217.5 337 L 209.5 333 L 150 273.5 L 116 238.5 Q 112.6 233.4 114 223.5 L 120.5 214 Q 125 209.5 134.5 210 L 143.5 214 L 190 260.5 L 220.5 292 L 241.5 273 L 357 157.5 Q 348.5 144 336.5 134 Q 312.5 112 279.5 99 L 264.5 94 L 240.5 89 L 232.5 89 L 231.5 88 L 200.5 88 L 199.5 89 L 179.5 91 L 145.5 102 Q 108.9 117.9 84 145.5 Q 72.1 158.1 63 173.5 L 47 206.5 L 42 223.5 L 39 239.5 L 38 257.5 L 37 258.5 L 37 270.5 L 38 271.5 L 38 285.5 L 39 286.5 L 39 294.5 L 41 304.5 L 52 338.5 Q 67.3 372.2 92.5 396 Q 119.1 421.9 157.5 436 L 190.5 444 L 198.5 444 L 199.5 445 L 231.5 445 L 232.5 444 L 240.5 444 L 256.5 441 L 286.5 431 Q 319.3 416.3 343 392.5 Q 366.6 369.1 381 336.5 L 390 310.5 L 394 288.5 L 395 262.5 L 400 253 L 406.5 249 L 416.5 248 Q 424.9 250.1 429 256.5 L 432 264.5 L 432 272.5 L 431 273.5 L 430 297.5 L 426 317.5 L 413 355.5 Q 393.7 397.2 361.5 426 Q 332.4 453.4 291.5 469 L 269.5 476 L 249.5 480 L 242.5 480 L 233.5 482 L 198.5 482 L 197.5 481 L 181.5 480 Q 173.5 476.5 162.5 476 L 128.5 464 Q 88.5 445.5 60 415.5 Q 42.2 397.3 29 374.5 L 13 340.5 L 7 321.5 Q 6.5 310.5 3 302.5 L 0 266.5 L 1 265.5 L 1 245.5 L 2 244.5 L 2 237.5 L 5 220.5 Q 9.5 200 17 182.5 Q 36.3 138.3 69.5 108 Q 100.1 79.1 143.5 63 L 159.5 58 L 182.5 53 L 199.5 52 L 200.5 51 L 230.5 51 L 231.5 52 L 241.5 52 L 264.5 56 L 282.5 61 L 303.5 69 Q 347.2 88.8 377 122.5 L 383.5 130 L 482.5 33 L 488.5 30 Z " /><path fill="rgb(0,0,0)" stroke="rgb(0,0,0)" stroke-width="1" opacity="0.3333333333333333" d="M 489.5 29 L 492 29.5 L 489.5 30 L 489.5 29 Z " /><path fill="rgb(0,0,0)" stroke="rgb(0,0,0)" stroke-width="1" opacity="0.3333333333333333" d="M 494.5 29 L 497 29.5 L 494.5 30 L 494.5 29 Z " /><path fill="rgb(0,0,0)" stroke="rgb(0,0,0)" stroke-width="1" opacity="0.3333333333333333" d="M 482.5 32 L 481.5 34 L 482.5 32 Z " /><path fill="rgb(0,0,0)" stroke="rgb(0,0,0)" stroke-width="1" opacity="0.3333333333333333" d="M 204.5 50 L 228 50.5 L 204.5 51 L 204.5 50 Z " /><path fill="rgb(0,0,0)" stroke="rgb(0,0,0)" stroke-width="1" opacity="0.3333333333333333" d="M 192.5 51 L 196 51.5 L 192.5 52 L 192.5 51 Z " /><path fill="rgb(0,0,0)" stroke="rgb(0,0,0)" stroke-width="1" opacity="0.3333333333333333" d="M 235.5 51 L 240 51.5 L 235.5 52 L 235.5 51 Z " /><path fill="rgb(0,0,0)" stroke="rgb(0,0,0)" stroke-width="1" opacity="0.3333333333333333" d="M 184.5 52 L 187 52.5 L 184.5 53 L 184.5 52 Z " /><path fill="rgb(0,0,0)" stroke="rgb(0,0,0)" stroke-width="1" opacity="0.3333333333333333" d="M 245.5 52 L 248 52.5 L 245.5 53 L 245.5 52 Z " /><path fill="rgb(0,0,0)" stroke="rgb(0,0,0)" stroke-width="1" opacity="0.3333333333333333" d="M 508.5 59 L 429.5 139 L 508.5 59 Z " /><path fill="rgb(0,0,0)" stroke="rgb(0,0,0)" stroke-width="1" opacity="0.3333333333333333" d="M 440.5 73 L 384.5 130 L 380 126.5 L 383.5 129 L 440.5 73 Z " /><path fill="rgb(0,0,0)" stroke="rgb(0,0,0)" stroke-width="1" opacity="0.3333333333333333" d="M 207.5 88 L 215 88.5 L 207.5 89 L 207.5 88 Z " /><path fill="rgb(0,0,0)" stroke="rgb(0,0,0)" stroke-width="1" opacity="0.3333333333333333" d="M 218.5 88 L 229 88.5 L 218.5 89 L 218.5 88 Z " /><path fill="rgb(0,0,0)" stroke="rgb(0,0,0)" stroke-width="1" opacity="0.3333333333333333" d="M 194.5 89 L 197 89.5 L 194.5 90 L 194.5 89 Z " /><path fill="rgb(0,0,0)" stroke="rgb(0,0,0)" stroke-width="1" opacity="0.3333333333333333" d="M 235.5 89 L 239 89.5 L 235.5 90 L 235.5 89 Z " /><path fill="rgb(0,0,0)" stroke="rgb(0,0,0)" stroke-width="1" opacity="0.3333333333333333" d="M 188.5 90 L 191 90.5 L 188.5 91 L 188.5 90 Z " /><path fill="rgb(0,0,0)" stroke="rgb(0,0,0)" stroke-width="1" opacity="0.3333333333333333" d="M 243.5 90 L 246 90.5 L 243.5 91 L 243.5 90 Z " /><path fill="rgb(0,0,0)" stroke="rgb(0,0,0)" stroke-width="1" opacity="0.3333333333333333" d="M 344.5 92 L 345.5 94 L 344.5 92 Z " /><path fill="rgb(0,0,0)" stroke="rgb(0,0,0)" stroke-width="1" opacity="0.3333333333333333" d="M 348.5 95 L 349.5 97 L 348.5 95 Z " /><path fill="rgb(0,0,0)" stroke="rgb(0,0,0)" stroke-width="1" opacity="0.3333333333333333" d="M 82.5 96 L 81.5 98 L 82.5 96 Z " /><path fill="rgb(0,0,0)" stroke="rgb(0,0,0)" stroke-width="1" opacity="0.3333333333333333" d="M 353.5 99 L 355.5 102 L 353.5 99 Z " /><path fill="rgb(0,0,0)" stroke="rgb(0,0,0)" stroke-width="1" opacity="0.3333333333333333" d="M 77.5 100 L 75.5 103 L 77.5 100 Z " /><path fill="rgb(0,0,0)" stroke="rgb(0,0,0)" stroke-width="1" opacity="0.3333333333333333" d="M 360.5 105 L 366.5 112 L 360.5 105 Z " /><path fill="rgb(0,0,0)" stroke="rgb(0,0,0)" stroke-width="1" opacity="0.3333333333333333" d="M 69.5 107 L 57.5 120 L 69.5 107 Z " /><path fill="rgb(0,0,0)" stroke="rgb(0,0,0)" stroke-width="1" opacity="0.3333333333333333" d="M 368.5 113 L 377.5 123 L 368.5 113 Z " /><path fill="rgb(0,0,0)" stroke="rgb(0,0,0)" stroke-width="1" opacity="0.3333333333333333" d="M 121.5 115 L 120.5 117 L 121.5 115 Z " /><path fill="rgb(0,0,0)" stroke="rgb(0,0,0)" stroke-width="1" opacity="0.3333333333333333" d="M 312.5 116 L 313.5 118 L 312.5 116 Z " /><path fill="rgb(0,0,0)" stroke="rgb(0,0,0)" stroke-width="1" opacity="0.3333333333333333" d="M 315.5 118 L 316.5 120 L 315.5 118 Z " /><path fill="rgb(0,0,0)" stroke="rgb(0,0,0)" stroke-width="1" opacity="0.3333333333333333" d="M 318.5 120 L 319.5 122 L 318.5 120 Z " /><path fill="rgb(0,0,0)" stroke="rgb(0,0,0)" stroke-width="1" opacity="0.3333333333333333" d="M 322.5 123 L 323.5 125 L 322.5 123 Z " /><path fill="rgb(0,0,0)" stroke="rgb(0,0,0)" stroke-width="1" opacity="0.3333333333333333" d="M 108.5 124 L 107.5 126 L 108.5 124 Z " /><path fill="rgb(0,0,0)" stroke="rgb(0,0,0)" stroke-width="1" opacity="0.3333333333333333" d="M 52.5 125 L 50.5 128 L 52.5 125 Z " /><path fill="rgb(0,0,0)" stroke="rgb(0,0,0)" stroke-width="1" opacity="0.3333333333333333" d="M 326.5 126 L 327.5 128 L 326.5 126 Z " /><path fill="rgb(0,0,0)" stroke="rgb(0,0,0)" stroke-width="1" opacity="0.3333333333333333" d="M 104.5 127 L 102.5 130 L 104.5 127 Z " /><path fill="rgb(0,0,0)" stroke="rgb(0,0,0)" stroke-width="1" opacity="0.3333333333333333" d="M 47.5 131 L 46.5 133 L 47.5 131 Z " /><path fill="rgb(0,0,0)" stroke="rgb(0,0,0)" stroke-width="1" opacity="0.3333333333333333" d="M 99.5 131 L 91.5 140 L 99.5 131 Z " /><path fill="rgb(0,0,0)" stroke="rgb(0,0,0)" stroke-width="1" opacity="0.3333333333333333" d="M 332.5 131 L 334.5 134 L 332.5 131 Z " /><path fill="rgb(0,0,0)" stroke="rgb(0,0,0)" stroke-width="1" opacity="0.3333333333333333" d="M 43.5 136 L 42.5 138 L 43.5 136 Z " /><path fill="rgb(0,0,0)" stroke="rgb(0,0,0)" stroke-width="1" opacity="0.3333333333333333" d="M 38.5 143 L 37.5 145 L 38.5 143 Z " /><path fill="rgb(0,0,0)" stroke="rgb(0,0,0)" stroke-width="1" opacity="0.3333333333333333" d="M 36.5 146 L 35.5 148 L 36.5 146 Z " /><path fill="rgb(0,0,0)" stroke="rgb(0,0,0)" stroke-width="1" opacity="0.3333333333333333" d="M 84.5 146 L 82.5 149 L 84.5 146 Z " /><path fill="rgb(0,0,0)" stroke="rgb(0,0,0)" stroke-width="1" opacity="0.3333333333333333" d="M 348.5 147 L 351.5 151 L 348.5 147 Z " /><path fill="rgb(0,0,0)" stroke="rgb(0,0,0)" stroke-width="1" opacity="0.3333333333333333" d="M 34.5 149 L 33.5 151 L 34.5 149 Z " /><path fill="rgb(0,0,0)" stroke="rgb(0,0,0)" stroke-width="1" opacity="0.3333333333333333" d="M 78.5 153 L 76.5 156 L 78.5 153 Z " /><path fill="rgb(0,0,0)" stroke="rgb(0,0,0)" stroke-width="1" opacity="0.3333333333333333" d="M 354.5 154 L 357 157.5 L 349 164.5 L 356 156.5 L 354.5 154 Z " /><path fill="rgb(0,0,0)" stroke="rgb(0,0,0)" stroke-width="1" opacity="0.3333333333333333" d="M 71.5 162 L 70.5 164 L 71.5 162 Z " /><path fill="rgb(0,0,0)" stroke="rgb(0,0,0)" stroke-width="1" opacity="0.3333333333333333" d="M 69.5 165 L 68.5 167 L 69.5 165 Z " /><path fill="rgb(0,0,0)" stroke="rgb(0,0,0)" stroke-width="1" opacity="0.3333333333333333" d="M 67.5 168 L 66.5 170 L 67.5 168 Z " /><path fill="rgb(0,0,0)" stroke="rgb(0,0,0)" stroke-width="1" opacity="0.3333333333333333" d="M 120.5 213 L 116.5 218 L 120.5 213 Z " /><path fill="rgb(0,0,0)" stroke="rgb(0,0,0)" stroke-width="1" opacity="0.3333333333333333" d="M 143.5 213 L 196.5 267 L 143.5 213 Z " /><path fill="rgb(0,0,0)" stroke="rgb(0,0,0)" stroke-width="1" opacity="0.3333333333333333" d="M 42.5 224 L 43 226.5 L 42 226.5 L 42.5 224 Z " /><path fill="rgb(0,0,0)" stroke="rgb(0,0,0)" stroke-width="1" opacity="0.3333333333333333" d="M 339.5 227 L 244.5 323 L 339.5 227 Z " /><path fill="rgb(0,0,0)" stroke="rgb(0,0,0)" stroke-width="1" opacity="0.3333333333333333" d="M 1.5 239 L 2 241.5 L 1 241.5 L 1.5 239 Z " /><path fill="rgb(0,0,0)" stroke="rgb(0,0,0)" stroke-width="1" opacity="0.3333333333333333" d="M 39.5 240 L 40 242.5 L 39 242.5 L 39.5 240 Z " /><path fill="rgb(0,0,0)" stroke="rgb(0,0,0)" stroke-width="1" opacity="0.3333333333333333" d="M 412.5 247 L 415 247.5 L 412.5 248 L 412.5 247 Z " /><path fill="rgb(0,0,0)" stroke="rgb(0,0,0)" stroke-width="1" opacity="0.3333333333333333" d="M 0.5 248 L 1 253.5 L 0 253.5 L 0.5 248 Z " /><path fill="rgb(0,0,0)" stroke="rgb(0,0,0)" stroke-width="1" opacity="0.3333333333333333" d="M 38.5 250 L 39 254.5 L 38 254.5 L 38.5 250 Z " /><path fill="rgb(0,0,0)" stroke="rgb(0,0,0)" stroke-width="1" opacity="0.3333333333333333" d="M 423.5 250 L 424.5 252 L 423.5 250 Z " /><path fill="rgb(0,0,0)" stroke="rgb(0,0,0)" stroke-width="1" opacity="0.3333333333333333" d="M 428.5 255 L 429.5 257 L 428.5 255 Z " /><path fill="rgb(0,0,0)" stroke="rgb(0,0,0)" stroke-width="1" opacity="0.3333333333333333" d="M 249.5 263 L 221.5 292 L 249.5 263 Z " /><path fill="rgb(0,0,0)" stroke="rgb(0,0,0)" stroke-width="1" opacity="0.3333333333333333" d="M 394.5 264 L 395 269.5 L 394 269.5 L 394.5 264 Z " /><path fill="rgb(0,0,0)" stroke="rgb(0,0,0)" stroke-width="1" opacity="0.3333333333333333" d="M 143.5 267 L 209.5 334 L 143.5 267 Z " /><path fill="rgb(0,0,0)" stroke="rgb(0,0,0)" stroke-width="1" opacity="0.3333333333333333" d="M 0.5 279 L 1 284.5 L 0 284.5 L 0.5 279 Z " /><path fill="rgb(0,0,0)" stroke="rgb(0,0,0)" stroke-width="1" opacity="0.3333333333333333" d="M 38.5 280 L 39 282.5 L 38 282.5 L 38.5 280 Z " /><path fill="rgb(0,0,0)" stroke="rgb(0,0,0)" stroke-width="1" opacity="0.3333333333333333" d="M 393.5 282 L 394 285.5 L 393 285.5 L 393.5 282 Z " /><path fill="rgb(0,0,0)" stroke="rgb(0,0,0)" stroke-width="1" opacity="0.3333333333333333" d="M 431.5 282 L 432 286.5 L 431 286.5 L 431.5 282 Z " /><path fill="rgb(0,0,0)" stroke="rgb(0,0,0)" stroke-width="1" opacity="0.3333333333333333" d="M 39.5 288 L 40 291.5 L 39 291.5 L 39.5 288 Z " /><path fill="rgb(0,0,0)" stroke="rgb(0,0,0)" stroke-width="1" opacity="0.3333333333333333" d="M 1.5 289 L 2 292.5 L 1 292.5 L 1.5 289 Z " /><path fill="rgb(0,0,0)" stroke="rgb(0,0,0)" stroke-width="1" opacity="0.3333333333333333" d="M 392.5 291 L 393 293.5 L 392 293.5 L 392.5 291 Z " /><path fill="rgb(0,0,0)" stroke="rgb(0,0,0)" stroke-width="1" opacity="0.3333333333333333" d="M 430.5 292 L 431 295.5 L 430 295.5 L 430.5 292 Z " /><path fill="rgb(0,0,0)" stroke="rgb(0,0,0)" stroke-width="1" opacity="0.3333333333333333" d="M 2.5 298 L 3 301.5 L 2 301.5 L 2.5 298 Z " /><path fill="rgb(0,0,0)" stroke="rgb(0,0,0)" stroke-width="1" opacity="0.3333333333333333" d="M 218.5 337 L 224 337.5 L 218.5 338 L 218.5 337 Z " /><path fill="rgb(0,0,0)" stroke="rgb(0,0,0)" stroke-width="1" opacity="0.3333333333333333" d="M 369.5 357 L 368.5 359 L 369.5 357 Z " /><path fill="rgb(0,0,0)" stroke="rgb(0,0,0)" stroke-width="1" opacity="0.3333333333333333" d="M 66.5 363 L 67.5 365 L 66.5 363 Z " /><path fill="rgb(0,0,0)" stroke="rgb(0,0,0)" stroke-width="1" opacity="0.3333333333333333" d="M 70.5 369 L 71.5 371 L 70.5 369 Z " /><path fill="rgb(0,0,0)" stroke="rgb(0,0,0)" stroke-width="1" opacity="0.3333333333333333" d="M 73.5 373 L 74.5 375 L 73.5 373 Z " /><path fill="rgb(0,0,0)" stroke="rgb(0,0,0)" stroke-width="1" opacity="0.3333333333333333" d="M 358.5 373 L 357.5 375 L 358.5 373 Z " /><path fill="rgb(0,0,0)" stroke="rgb(0,0,0)" stroke-width="1" opacity="0.3333333333333333" d="M 402.5 376 L 401.5 378 L 402.5 376 Z " /><path fill="rgb(0,0,0)" stroke="rgb(0,0,0)" stroke-width="1" opacity="0.3333333333333333" d="M 77.5 378 L 78.5 380 L 77.5 378 Z " /><path fill="rgb(0,0,0)" stroke="rgb(0,0,0)" stroke-width="1" opacity="0.3333333333333333" d="M 354.5 378 L 353.5 380 L 354.5 378 Z " /><path fill="rgb(0,0,0)" stroke="rgb(0,0,0)" stroke-width="1" opacity="0.3333333333333333" d="M 400.5 379 L 399.5 381 L 400.5 379 Z " /><path fill="rgb(0,0,0)" stroke="rgb(0,0,0)" stroke-width="1" opacity="0.3333333333333333" d="M 32.5 380 L 33.5 382 L 32.5 380 Z " /><path fill="rgb(0,0,0)" stroke="rgb(0,0,0)" stroke-width="1" opacity="0.3333333333333333" d="M 81.5 383 L 86.5 389 L 81.5 383 Z " /><path fill="rgb(0,0,0)" stroke="rgb(0,0,0)" stroke-width="1" opacity="0.3333333333333333" d="M 350.5 383 L 341.5 393 L 350.5 383 Z " /><path fill="rgb(0,0,0)" stroke="rgb(0,0,0)" stroke-width="1" opacity="0.3333333333333333" d="M 393.5 390 L 392.5 392 L 393.5 390 Z " /><path fill="rgb(0,0,0)" stroke="rgb(0,0,0)" stroke-width="1" opacity="0.3333333333333333" d="M 40.5 392 L 41.5 394 L 40.5 392 Z " /><path fill="rgb(0,0,0)" stroke="rgb(0,0,0)" stroke-width="1" opacity="0.3333333333333333" d="M 390.5 394 L 389.5 396 L 390.5 394 Z " /><path fill="rgb(0,0,0)" stroke="rgb(0,0,0)" stroke-width="1" opacity="0.3333333333333333" d="M 93.5 395 L 98.5 401 L 93.5 395 Z " /><path fill="rgb(0,0,0)" stroke="rgb(0,0,0)" stroke-width="1" opacity="0.3333333333333333" d="M 338.5 395 L 335.5 399 L 338.5 395 Z " /><path fill="rgb(0,0,0)" stroke="rgb(0,0,0)" stroke-width="1" opacity="0.3333333333333333" d="M 43.5 396 L 44.5 398 L 43.5 396 Z " /><path fill="rgb(0,0,0)" stroke="rgb(0,0,0)" stroke-width="1" opacity="0.3333333333333333" d="M 386.5 399 L 385.5 401 L 386.5 399 Z " /><path fill="rgb(0,0,0)" stroke="rgb(0,0,0)" stroke-width="1" opacity="0.3333333333333333" d="M 46.5 400 L 47.5 402 L 46.5 400 Z " /><path fill="rgb(0,0,0)" stroke="rgb(0,0,0)" stroke-width="1" opacity="0.3333333333333333" d="M 330.5 402 L 327.5 406 L 330.5 402 Z " /><path fill="rgb(0,0,0)" stroke="rgb(0,0,0)" stroke-width="1" opacity="0.3333333333333333" d="M 383.5 403 L 382.5 405 L 383.5 403 Z " /><path fill="rgb(0,0,0)" stroke="rgb(0,0,0)" stroke-width="1" opacity="0.3333333333333333" d="M 103.5 404 L 104.5 406 L 103.5 404 Z " /><path fill="rgb(0,0,0)" stroke="rgb(0,0,0)" stroke-width="1" opacity="0.3333333333333333" d="M 50.5 405 L 53.5 409 L 50.5 405 Z " /><path fill="rgb(0,0,0)" stroke="rgb(0,0,0)" stroke-width="1" opacity="0.3333333333333333" d="M 107.5 407 L 108.5 409 L 107.5 407 Z " /><path fill="rgb(0,0,0)" stroke="rgb(0,0,0)" stroke-width="1" opacity="0.3333333333333333" d="M 324.5 407 L 323.5 409 L 324.5 407 Z " /><path fill="rgb(0,0,0)" stroke="rgb(0,0,0)" stroke-width="1" opacity="0.3333333333333333" d="M 377.5 410 L 370.5 418 L 377.5 410 Z " /><path fill="rgb(0,0,0)" stroke="rgb(0,0,0)" stroke-width="1" opacity="0.3333333333333333" d="M 112.5 411 L 113.5 413 L 112.5 411 Z " /><path fill="rgb(0,0,0)" stroke="rgb(0,0,0)" stroke-width="1" opacity="0.3333333333333333" d="M 317.5 412 L 316.5 414 L 317.5 412 Z " /><path fill="rgb(0,0,0)" stroke="rgb(0,0,0)" stroke-width="1" opacity="0.3333333333333333" d="M 115.5 413 L 116.5 415 L 115.5 413 Z " /><path fill="rgb(0,0,0)" stroke="rgb(0,0,0)" stroke-width="1" opacity="0.3333333333333333" d="M 59.5 415 L 66.5 423 L 59.5 415 Z " /><path fill="rgb(0,0,0)" stroke="rgb(0,0,0)" stroke-width="1" opacity="0.3333333333333333" d="M 311.5 416 L 310.5 418 L 311.5 416 Z " /><path fill="rgb(0,0,0)" stroke="rgb(0,0,0)" stroke-width="1" opacity="0.3333333333333333" d="M 126.5 420 L 127.5 422 L 126.5 420 Z " /><path fill="rgb(0,0,0)" stroke="rgb(0,0,0)" stroke-width="1" opacity="0.3333333333333333" d="M 364.5 423 L 361.5 427 L 364.5 423 Z " /><path fill="rgb(0,0,0)" stroke="rgb(0,0,0)" stroke-width="1" opacity="0.3333333333333333" d="M 73.5 428 L 77.5 433 L 73.5 428 Z " /><path fill="rgb(0,0,0)" stroke="rgb(0,0,0)" stroke-width="1" opacity="0.3333333333333333" d="M 355.5 431 L 352.5 435 L 355.5 431 Z " /><path fill="rgb(0,0,0)" stroke="rgb(0,0,0)" stroke-width="1" opacity="0.3333333333333333" d="M 80.5 434 L 81.5 436 L 80.5 434 Z " /><path fill="rgb(0,0,0)" stroke="rgb(0,0,0)" stroke-width="1" opacity="0.3333333333333333" d="M 349.5 436 L 348.5 438 L 349.5 436 Z " /><path fill="rgb(0,0,0)" stroke="rgb(0,0,0)" stroke-width="1" opacity="0.3333333333333333" d="M 85.5 438 L 86.5 440 L 85.5 438 Z " /><path fill="rgb(0,0,0)" stroke="rgb(0,0,0)" stroke-width="1" opacity="0.3333333333333333" d="M 345.5 439 L 344.5 441 L 345.5 439 Z " /><path fill="rgb(0,0,0)" stroke="rgb(0,0,0)" stroke-width="1" opacity="0.3333333333333333" d="M 89.5 441 L 90.5 443 L 89.5 441 Z " /><path fill="rgb(0,0,0)" stroke="rgb(0,0,0)" stroke-width="1" opacity="0.3333333333333333" d="M 248.5 441 L 251 441.5 L 248.5 442 L 248.5 441 Z " /><path fill="rgb(0,0,0)" stroke="rgb(0,0,0)" stroke-width="1" opacity="0.3333333333333333" d="M 242.5 442 L 245 442.5 L 242.5 443 L 242.5 442 Z " /><path fill="rgb(0,0,0)" stroke="rgb(0,0,0)" stroke-width="1" opacity="0.3333333333333333" d="M 341.5 442 L 340.5 444 L 341.5 442 Z " /><path fill="rgb(0,0,0)" stroke="rgb(0,0,0)" stroke-width="1" opacity="0.3333333333333333" d="M 193.5 443 L 197 443.5 L 193.5 444 L 193.5 443 Z " /><path fill="rgb(0,0,0)" stroke="rgb(0,0,0)" stroke-width="1" opacity="0.3333333333333333" d="M 235.5 443 L 239 443.5 L 235.5 444 L 235.5 443 Z " /><path fill="rgb(0,0,0)" stroke="rgb(0,0,0)" stroke-width="1" opacity="0.3333333333333333" d="M 202.5 444 L 216 444.5 L 202.5 445 L 202.5 444 Z " /><path fill="rgb(0,0,0)" stroke="rgb(0,0,0)" stroke-width="1" opacity="0.3333333333333333" d="M 222.5 444 L 227 444.5 L 222.5 445 L 222.5 444 Z " /><path fill="rgb(0,0,0)" stroke="rgb(0,0,0)" stroke-width="1" opacity="0.3333333333333333" d="M 98.5 447 L 99.5 449 L 98.5 447 Z " /><path fill="rgb(0,0,0)" stroke="rgb(0,0,0)" stroke-width="1" opacity="0.3333333333333333" d="M 183.5 480 L 187 480.5 L 183.5 481 L 183.5 480 Z " /><path fill="rgb(0,0,0)" stroke="rgb(0,0,0)" stroke-width="1" opacity="0.3333333333333333" d="M 245.5 480 L 248 480.5 L 245.5 481 L 245.5 480 Z " /><path fill="rgb(0,0,0)" stroke="rgb(0,0,0)" stroke-width="1" opacity="0.3333333333333333" d="M 192.5 481 L 195 481.5 L 192.5 482 L 192.5 481 Z " /><path fill="rgb(0,0,0)" stroke="rgb(0,0,0)" stroke-width="1" opacity="0.3333333333333333" d="M 237.5 481 L 241 481.5 L 237.5 482 L 237.5 481 Z " /><path fill="rgb(0,0,0)" stroke="rgb(0,0,0)" stroke-width="1" opacity="0.3333333333333333" d="M 200.5 482 L 212 482.5 L 200.5 483 L 200.5 482 Z " /><path fill="rgb(0,0,0)" stroke="rgb(0,0,0)" stroke-width="1" opacity="0.3333333333333333" d="M 219.5 482 L 229 482.5 L 219.5 483 L 219.5 482 Z " /></svg>