<?xml version="1.0" encoding="UTF-8"?>
<svg version="1.1" xmlns="http://www.w3.org/2000/svg" width="512" height="512">
<path d="M0 0 C3.33914218 2.62823813 6.27654129 5.60997124 9.25593567 8.63447571 C10.15495234 9.52710355 11.05396901 10.4197314 11.9802286 11.33940858 C14.46461878 13.80685763 16.93323652 16.28957108 19.39946258 18.77515733 C22.06592242 21.45707567 24.74680174 24.12451354 27.4258728 26.79382324 C32.66739074 32.02082868 37.89545257 37.26109601 43.11899493 42.50605861 C49.20346872 48.61456403 55.30080483 54.71016283 61.39860376 60.80536153 C72.27801374 71.68108285 83.14512773 82.56900874 94.00561523 93.46362305 C104.54278867 104.03389499 115.08938429 114.59464882 125.64624023 125.14526367 C137.14507002 136.6373289 148.63926642 148.13398736 160.12488002 159.63926286 C160.73225735 160.24767967 161.33963468 160.85609649 161.96541738 161.48295018 C163.18527189 162.70489557 164.40511635 163.926851 165.62495062 165.14881659 C169.870683 169.40144291 174.11952054 173.6509517 178.36942482 177.89940834 C183.54794017 183.07648376 188.72084875 188.25908775 193.88678572 193.4487156 C196.52241674 196.09620325 199.16035627 198.74127344 201.80483437 201.37992668 C204.67108638 204.24005169 207.52556002 207.11164885 210.37898254 209.98457336 C211.21690474 210.81716763 212.05482693 211.6497619 212.91814071 212.5075863 C218.86423926 218.52418026 222.42198936 223.11830607 222.5 231.875 C222.54640625 233.60363281 222.54640625 233.60363281 222.59375 235.3671875 C221.16024182 244.1379941 214.27506272 250.15681786 208.20767212 256.18000793 C207.32220809 257.0708575 206.43674407 257.96170706 205.5244478 258.87955207 C203.08181376 261.3365767 200.62998869 263.78424117 198.17645645 266.2303766 C195.52614894 268.87593906 192.8844993 271.53012351 190.24168396 274.1831665 C185.06947564 279.37254009 179.88914889 284.55373455 174.70572974 289.73190782 C170.49289831 293.94069325 166.28282531 298.15221921 162.07468796 302.36569786 C161.47513308 302.96600116 160.8755782 303.56630446 160.25785499 304.18479877 C159.03979037 305.4043949 157.82172917 306.62399445 156.60367136 307.84359737 C145.19066342 319.27032132 133.76810309 330.68745858 122.34249847 342.10158505 C111.89139647 352.54274848 101.45178763 362.99531658 91.01761849 373.45339922 C80.29784743 384.19755275 69.57071521 394.9343039 58.83541906 405.66294593 C52.81074429 411.6841275 46.7889702 417.70814165 40.77479935 423.73981667 C35.65691346 428.87241353 30.53206036 433.99792709 25.39809896 439.11444614 C22.77953147 441.72449359 20.16427044 444.33763998 17.55761147 446.95958519 C14.73127128 449.8022942 11.88967244 452.62924251 9.04629517 455.45491028 C7.81549223 456.70012073 7.81549223 456.70012073 6.55982459 457.97048694 C0.90453333 463.55339134 -4.0278351 467.39942744 -12.3125 467.5 C-19.03113241 467.28744354 -24.99816851 465.15364825 -29.69921875 460.21484375 C-33.23044373 455.44920774 -34.18303472 451.62480946 -34.3125 445.8125 C-34.34988281 444.72582031 -34.38726562 443.63914062 -34.42578125 442.51953125 C-33.37177326 433.80704315 -27.98846332 428.41551999 -22.00213623 422.52111816 C-21.19017516 421.7057394 -20.3782141 420.89036063 -19.54164815 420.05027342 C-16.82721203 417.32926561 -14.09875903 414.62277198 -11.37011719 411.91601562 C-9.41683723 409.96609417 -7.46658542 408.01315418 -5.51620483 406.06033325 C-1.320078 401.86211329 2.88328561 397.67125489 7.09171295 393.48536682 C13.17630344 387.43334265 19.24976345 381.37024808 25.32060036 375.30443138 C35.1714164 365.46236073 45.03112405 355.62924813 54.89648438 345.80175781 C64.47735252 336.25762933 74.0539929 326.70929115 83.625 317.15527344 C84.51056135 316.27128843 84.51056135 316.27128843 85.41401282 315.36944515 C88.37584522 312.41283305 91.33759493 309.45613814 94.29930353 306.49940205 C118.8533962 281.98674786 143.42194496 257.48862693 168 233 C166.63134472 229.93291645 165.07969706 227.83303542 162.70407295 225.46915054 C162.01981212 224.78337441 161.33555128 224.09759827 160.63055527 223.39104104 C159.49944772 222.27276473 159.49944772 222.27276473 158.3454895 221.13189697 C157.54622665 220.33374754 156.7469638 219.5355981 155.92348087 218.71326232 C153.23509942 216.03096915 150.53964706 213.35589407 147.84423828 210.68066406 C145.91839844 208.76307181 143.99410396 206.84393173 142.0697937 204.92480469 C137.92031713 200.78792744 133.76741841 196.65451172 129.61240005 192.52320099 C123.59856531 186.5433192 117.59215865 180.55601911 111.58793269 174.5664911 C101.8379197 164.84037592 92.08491415 155.11726869 82.32861328 145.39746094 C81.74463303 144.81566093 81.16065278 144.23386093 80.55897616 143.63443062 C72.2750163 135.38167829 63.98807693 127.13192424 55.69992851 118.88337871 C55.11655464 118.30279147 54.53318077 117.72220423 53.93212891 117.12402344 C53.34946483 116.54414642 52.76680076 115.96426941 52.1664802 115.36682037 C42.44554702 105.6919842 32.73236122 96.00941279 23.02547252 86.32048583 C17.03950287 80.34621316 11.04710509 74.37853536 5.04625247 68.41921136 C0.93267619 64.33308854 -3.17361956 60.23974334 -7.27429996 56.14067915 C-9.63933217 53.77705255 -12.00850904 51.41801705 -14.38451385 49.06539154 C-16.9628582 46.51143955 -19.5285584 43.94541077 -22.09152222 41.3760376 C-23.21593761 40.27114561 -23.21593761 40.27114561 -24.36306846 39.14393258 C-29.40626476 34.05150366 -33.29577139 29.14252123 -34.53125 21.875 C-34.4494492 14.34932654 -33.58544356 8.8892947 -28.38671875 3.25 C-20.17733443 -4.32229241 -9.84816077 -5.15219386 0 0 Z " fill="#000000" transform="translate(258,24)"/>
<path d="M0 0 C3.33914218 2.62823813 6.27654129 5.60997124 9.25593567 8.63447571 C10.15495234 9.52710355 11.05396901 10.4197314 11.9802286 11.33940858 C14.46461878 13.80685763 16.93323652 16.28957108 19.39946258 18.77515733 C22.06592242 21.45707567 24.74680174 24.12451354 27.4258728 26.79382324 C32.66739074 32.02082868 37.89545257 37.26109601 43.11899493 42.50605861 C49.20346872 48.61456403 55.30080483 54.71016283 61.39860376 60.80536153 C72.27801374 71.68108285 83.14512773 82.56900874 94.00561523 93.46362305 C104.54278867 104.03389499 115.08938429 114.59464882 125.64624023 125.14526367 C137.14507002 136.6373289 148.63926642 148.13398736 160.12488002 159.63926286 C160.73225735 160.24767967 161.33963468 160.85609649 161.96541738 161.48295018 C163.18527189 162.70489557 164.40511635 163.926851 165.62495062 165.14881659 C169.870683 169.40144291 174.11952054 173.6509517 178.36942482 177.89940834 C183.54794017 183.07648376 188.72084875 188.25908775 193.88678572 193.4487156 C196.52241674 196.09620325 199.16035627 198.74127344 201.80483437 201.37992668 C204.67108638 204.24005169 207.52556002 207.11164885 210.37898254 209.98457336 C211.21690474 210.81716763 212.05482693 211.6497619 212.91814071 212.5075863 C218.86423926 218.52418026 222.42198936 223.11830607 222.5 231.875 C222.54640625 233.60363281 222.54640625 233.60363281 222.59375 235.3671875 C221.16024182 244.1379941 214.27506272 250.15681786 208.20767212 256.18000793 C207.32220809 257.0708575 206.43674407 257.96170706 205.5244478 258.87955207 C203.08181376 261.3365767 200.62998869 263.78424117 198.17645645 266.2303766 C195.52614894 268.87593906 192.8844993 271.53012351 190.24168396 274.1831665 C185.06947564 279.37254009 179.88914889 284.55373455 174.70572974 289.73190782 C170.49289831 293.94069325 166.28282531 298.15221921 162.07468796 302.36569786 C161.47513308 302.96600116 160.8755782 303.56630446 160.25785499 304.18479877 C159.03979037 305.4043949 157.82172917 306.62399445 156.60367136 307.84359737 C145.19066342 319.27032132 133.76810309 330.68745858 122.34249847 342.10158505 C111.89139647 352.54274848 101.45178763 362.99531658 91.01761849 373.45339922 C80.29784743 384.19755275 69.57071521 394.9343039 58.83541906 405.66294593 C52.81074429 411.6841275 46.7889702 417.70814165 40.77479935 423.73981667 C35.65691346 428.87241353 30.53206036 433.99792709 25.39809896 439.11444614 C22.77953147 441.72449359 20.16427044 444.33763998 17.55761147 446.95958519 C14.73127128 449.8022942 11.88967244 452.62924251 9.04629517 455.45491028 C7.81549223 456.70012073 7.81549223 456.70012073 6.55982459 457.97048694 C0.90453333 463.55339134 -4.0278351 467.39942744 -12.3125 467.5 C-19.03113241 467.28744354 -24.99816851 465.15364825 -29.69921875 460.21484375 C-33.23044373 455.44920774 -34.18303472 451.62480946 -34.3125 445.8125 C-34.34988281 444.72582031 -34.38726562 443.63914062 -34.42578125 442.51953125 C-33.37177326 433.80704315 -27.98846332 428.41551999 -22.00213623 422.52111816 C-21.19017516 421.7057394 -20.3782141 420.89036063 -19.54164815 420.05027342 C-16.82721203 417.32926561 -14.09875903 414.62277198 -11.37011719 411.91601562 C-9.41683723 409.96609417 -7.46658542 408.01315418 -5.51620483 406.06033325 C-1.320078 401.86211329 2.88328561 397.67125489 7.09171295 393.48536682 C13.17630344 387.43334265 19.24976345 381.37024808 25.32060036 375.30443138 C35.1714164 365.46236073 45.03112405 355.62924813 54.89648438 345.80175781 C64.47735252 336.25762933 74.0539929 326.70929115 83.625 317.15527344 C84.51056135 316.27128843 84.51056135 316.27128843 85.41401282 315.36944515 C88.37584522 312.41283305 91.33759493 309.45613814 94.29930353 306.49940205 C118.8533962 281.98674786 143.42194496 257.48862693 168 233 C166.63134472 229.93291645 165.07969706 227.83303542 162.70407295 225.46915054 C162.01981212 224.78337441 161.33555128 224.09759827 160.63055527 223.39104104 C159.49944772 222.27276473 159.49944772 222.27276473 158.3454895 221.13189697 C157.54622665 220.33374754 156.7469638 219.5355981 155.92348087 218.71326232 C153.23509942 216.03096915 150.53964706 213.35589407 147.84423828 210.68066406 C145.91839844 208.76307181 143.99410396 206.84393173 142.0697937 204.92480469 C137.92031713 200.78792744 133.76741841 196.65451172 129.61240005 192.52320099 C123.59856531 186.5433192 117.59215865 180.55601911 111.58793269 174.5664911 C101.8379197 164.84037592 92.08491415 155.11726869 82.32861328 145.39746094 C81.74463303 144.81566093 81.16065278 144.23386093 80.55897616 143.63443062 C72.2750163 135.38167829 63.98807693 127.13192424 55.69992851 118.88337871 C55.11655464 118.30279147 54.53318077 117.72220423 53.93212891 117.12402344 C53.34946483 116.54414642 52.76680076 115.96426941 52.1664802 115.36682037 C42.44554702 105.6919842 32.73236122 96.00941279 23.02547252 86.32048583 C17.03950287 80.34621316 11.04710509 74.37853536 5.04625247 68.41921136 C0.93267619 64.33308854 -3.17361956 60.23974334 -7.27429996 56.14067915 C-9.63933217 53.77705255 -12.00850904 51.41801705 -14.38451385 49.06539154 C-16.9628582 46.51143955 -19.5285584 43.94541077 -22.09152222 41.3760376 C-23.21593761 40.27114561 -23.21593761 40.27114561 -24.36306846 39.14393258 C-29.40626476 34.05150366 -33.29577139 29.14252123 -34.53125 21.875 C-34.4494492 14.34932654 -33.58544356 8.8892947 -28.38671875 3.25 C-20.17733443 -4.32229241 -9.84816077 -5.15219386 0 0 Z " fill="#000000" transform="translate(66,24)"/>
</svg>
