<?xml version="1.0" encoding="UTF-8"?>
<svg version="1.1" xmlns="http://www.w3.org/2000/svg" width="512" height="512">
<path d="M0 0 C0.92941406 0.30035156 1.85882813 0.60070313 2.81640625 0.91015625 C23.14043744 8.25734124 38.38557149 25.31463701 47.49609375 44.40234375 C59.19442063 72.38717248 55.1923055 106.61538671 55.30332303 136.35842943 C55.3256617 142.10927694 55.35286789 147.86010189 55.37937927 153.6109314 C55.42351191 163.33615014 55.46423462 173.06137831 55.50268555 182.78662109 C55.54131978 192.55356328 55.58278588 202.32048692 55.62768555 212.08740234 C55.74715757 238.12211568 55.85343541 264.15679649 55.93166542 290.19166946 C55.97052518 302.96239756 56.02031475 315.73299376 56.08392793 328.50362313 C56.12759917 337.41284321 56.16041243 346.322061 56.18479842 355.23135459 C56.19935756 360.41787565 56.2189252 365.60425699 56.25146675 370.79069901 C56.28127542 375.56154539 56.29711812 380.33222807 56.30192304 385.10316324 C56.30614631 386.83581563 56.31551407 388.56846455 56.33049273 390.30105734 C56.3501352 392.65944053 56.35112626 395.01713394 56.34751892 397.37557983 C56.35286117 398.68797323 56.35820341 400.00036663 56.36370754 401.35252953 C55.90175061 405.98530192 54.85926567 410.35510643 51.23828125 413.55859375 C45.08683327 416.36604973 40.31748771 417.21215897 33.75 414.8125 C30.0825359 412.39530775 27.52727448 410.03609068 26.4024995 405.69272882 C25.97760349 402.85016695 25.87393151 400.16542498 25.87250805 397.29133892 C25.8695004 396.14521372 25.86649275 394.99908851 25.86339396 393.81823224 C25.86514433 392.56358837 25.86689471 391.30894451 25.86869812 390.01628113 C25.86699537 388.666309 25.8648454 387.31633737 25.86228687 385.96636659 C25.85769337 383.03183653 25.85626832 380.09732756 25.85725212 377.16279411 C25.85884606 372.38744148 25.85364002 367.61210974 25.84762573 362.83676147 C25.8395135 355.90148614 25.83456902 348.96621449 25.83133507 342.03093529 C25.82583304 331.05831229 25.8089287 320.0857203 25.78999329 309.1131134 C25.78363638 305.35682588 25.77732792 301.60053828 25.77101612 297.84425068 C25.76943236 296.90545118 25.7678486 295.96665168 25.76621684 294.99940371 C25.74827947 284.31218608 25.73205495 273.62496626 25.71704102 262.93774414 C25.71497721 261.47241246 25.71497721 261.47241246 25.71287171 259.97747812 C25.69097021 244.16824956 25.68019246 228.35902901 25.67267027 212.54978796 C25.66458459 196.30445835 25.6412454 180.05919707 25.6047166 163.81390649 C25.58274887 153.80306369 25.57300938 143.79236163 25.57921693 133.78149597 C25.58240416 126.91047665 25.57097849 120.03957702 25.54832252 113.16859474 C25.53572007 109.21114649 25.52940487 105.25396507 25.54073906 101.29650688 C25.6028605 77.32286026 25.0855183 54.45839939 7.3203125 36.12109375 C-2.1953779 27.42240707 -13.07099652 23.61654565 -25.90625 23.7890625 C-38.4914071 24.64714139 -49.83041659 29.24136528 -59 38 C-69.26545953 50.55791027 -74.95392139 64.4763988 -75.62937927 80.69906616 C-75.68627699 81.9218529 -75.68627699 81.9218529 -75.74432415 83.1693424 C-76.15491194 93.05112615 -76.04427587 102.92805738 -75.92993164 112.81494141 C-75.90986146 114.9321241 -75.89032084 117.04931187 -75.8712616 119.16650391 C-75.82938521 123.69455656 -75.78384163 128.22255141 -75.73533821 132.75053787 C-75.65798336 139.97592098 -75.58917262 147.20137142 -75.52134705 154.42684937 C-75.41246701 165.92167222 -75.29807114 177.41643235 -75.18125385 188.91117704 C-74.9738768 209.32282428 -74.77369567 229.73454071 -74.57873625 250.14631021 C-74.52146849 256.12097536 -74.4629014 262.09562139 -74.40095711 268.07024002 C-74.27440321 280.28816125 -74.16054633 292.50598466 -74.07771605 304.72428882 C-74.03643076 310.66939307 -73.98410197 316.61415404 -73.91575241 322.55901337 C-73.84195092 329.00018538 -73.78908299 335.44125501 -73.74901855 341.88272166 C-73.73032561 344.32798009 -73.70462055 346.77319743 -73.67107785 349.21829724 C-73.43116877 367.16567854 -73.70716567 385.77866538 -82.25 402.0625 C-82.64058594 402.84359131 -83.03117188 403.62468262 -83.43359375 404.42944336 C-86.68451877 410.76361826 -90.41626498 416.54022296 -95 422 C-96.06347656 423.27037109 -96.06347656 423.27037109 -97.1484375 424.56640625 C-115.20572018 445.31644161 -140.34317362 460.03181502 -168 463 C-189.19208621 464.03859795 -208.48207987 462.74587486 -228 454 C-228.99128906 453.57074219 -229.98257813 453.14148438 -231.00390625 452.69921875 C-247.2821927 445.16494014 -261.5463891 432.50994124 -269 416 C-272.16598003 407.13209446 -273.52370224 398.42664041 -273 389 C-278.28 389 -283.56 389 -289 389 C-289 380.75 -289 372.5 -289 364 C-270.19 364 -251.38 364 -232 364 C-232 372.25 -232 380.5 -232 389 C-236.62 389 -241.24 389 -246 389 C-244.81017506 403.04377004 -244.81017506 403.04377004 -237.33984375 414.609375 C-236 416 -236 416 -236 418 C-235.41734375 418.27328125 -234.8346875 418.5465625 -234.234375 418.828125 C-232.0483043 419.97466558 -230.22752827 421.27871897 -228.25 422.75 C-210.70817704 434.47321175 -186.48711449 437.70712907 -166 433.9375 C-145.03338029 428.79838608 -124.15918941 417.25208739 -112 399 C-102.467507 382.39775161 -102.81147629 366.01290468 -103.0793972 347.47353363 C-103.12306169 344.42919907 -103.15897958 341.38484799 -103.19319153 338.34039307 C-103.24433773 333.81443564 -103.2978217 329.28851494 -103.35290527 324.76260376 C-103.50462878 312.07636887 -103.62126611 299.38978834 -103.73046875 286.703125 C-103.73642012 286.01335894 -103.74237149 285.32359288 -103.74850321 284.61292481 C-104.07343688 246.66625127 -104.18563288 208.71877077 -104.22969955 170.77083033 C-104.23084969 169.78135836 -104.23199983 168.79188639 -104.23318481 167.77243042 C-104.23432221 166.78450857 -104.2354596 165.79658671 -104.23663145 164.77872783 C-104.24542503 157.81137296 -104.26248486 150.84406834 -104.28317261 143.8767395 C-104.30853576 135.28514729 -104.32292731 126.69361966 -104.32363802 118.10198867 C-104.32424526 113.66266347 -104.32951964 109.22347858 -104.34763527 104.78418732 C-104.364201 100.66792799 -104.36626612 96.55190514 -104.35758889 92.435624 C-104.356846 90.94935832 -104.36106136 89.4630789 -104.37108219 87.97684681 C-104.54551083 60.48575384 -95.50648859 35.64861795 -76.62890625 15.46484375 C-55.84201469 -4.43459431 -26.79656086 -8.87079735 0 0 Z " fill="#000000" transform="translate(404,49)"/>
<path d="M0 0 C4.6429772 0.60599319 8.35917882 2.58894779 12.4375 4.75 C45.97838655 21.93237579 83.54661132 23.17776673 119.140625 11.75390625 C125.26082037 9.65176277 130.93505045 6.80615143 136.6171875 3.734375 C139.71140629 2.1479626 142.6758667 0.99622344 146 0 C146.0949444 6.44843251 145.75420746 12.70651594 145.08886719 19.11769104 C144.99086193 20.09726633 144.89285667 21.07684161 144.79188156 22.086101 C144.46447413 25.34764079 144.13067599 28.60849361 143.796875 31.86938477 C143.56003871 34.21547111 143.32359869 36.56159748 143.08752441 38.90776062 C142.44693925 45.26280885 141.8008214 51.61728372 141.15370178 57.97166944 C140.54634855 63.94398013 139.94314832 69.91670964 139.33992338 75.88943838 C138.1454979 87.71449168 136.94706573 99.5391353 135.74609375 111.36352539 C134.57991803 122.84540836 133.41564184 134.32748134 132.25390625 145.80981445 C132.18221836 146.51835489 132.11053046 147.22689533 132.03667021 147.95690668 C131.67702154 151.5116768 131.31741006 155.06645068 130.95781708 158.62122643 C127.97764439 188.08140353 124.99021917 217.54084055 122 247 C89.99 247 57.98 247 25 247 C19.87233577 198.7747382 14.97472095 150.52764989 10.10558009 102.27572858 C9.22292361 93.5299463 8.33861577 84.78433155 7.45393288 76.03875405 C6.48764552 66.48608743 5.52247839 56.93330795 4.557827 47.380476 C4.15070189 43.3489707 3.74317927 39.31750588 3.33533096 35.28607368 C2.85993363 30.58646194 2.38551198 25.88675272 1.91186714 21.18696404 C1.73805513 19.46389677 1.56389986 17.74086409 1.38938332 16.01786804 C1.15231255 13.67672259 0.91646285 11.33545736 0.68093872 8.99415588 C0.5486191 7.68365548 0.41629948 6.37315508 0.27997017 5.02294254 C0 2 0 2 0 0 Z " fill="#000000" transform="translate(70,154)"/>
<path d="M0 0 C19.48051601 15.12144993 33.22119506 36.31179202 36.34375 61.08984375 C37.53848645 82.90568983 35.60172607 101.5650974 21.53125 119.27734375 C4.69163827 136.89020295 -25.63273489 144.48625626 -49.2421875 145.29296875 C-76.36174719 145.7410629 -106.00188241 139.63431119 -127.28125 121.71484375 C-140.46689358 108.77545158 -145.32886145 91.65870904 -145.90625 73.58984375 C-145.18005414 50.73603284 -137.61392513 30.37287173 -122.65625 13.08984375 C-122.04910156 12.28417969 -121.44195312 11.47851562 -120.81640625 10.6484375 C-91.46674299 -24.11472603 -35.19028554 -25.30595534 0 0 Z " fill="#000000" transform="translate(197.65625,16.91015625)"/>
</svg>
