<?xml version="1.0" encoding="UTF-8"?>
<svg version="1.1" xmlns="http://www.w3.org/2000/svg" width="512" height="512">
<path d="M0 0 C15.67270675 9.20694192 35.49163373 14.49244352 53.64135742 15.14355469 C54.86467773 15.19511719 56.08799805 15.24667969 57.34838867 15.29980469 C70.31999783 15.66348038 83.32162018 14.33979707 95.64135742 10.14355469 C99.39135742 9.89355469 99.39135742 9.89355469 102.64135742 10.14355469 C104.64135742 12.14355469 104.64135742 12.14355469 104.79370117 14.54199219 C103.38875018 34.00694961 90.95427804 50.1295809 76.71557617 62.73339844 C56.79577194 79.20245348 33.67865929 86.21889534 8.07885742 86.39355469 C6.51760132 86.40769409 6.51760132 86.40769409 4.92480469 86.42211914 C-11.94232773 86.35171211 -11.94232773 86.35171211 -18.35864258 83.14355469 C-18.11712967 84.2973613 -17.87561676 85.45116791 -17.62678528 86.63993835 C-16.88056362 90.20503551 -16.13444659 93.77015455 -15.3883667 97.33528137 C-14.48900042 101.63284987 -13.58933189 105.93035498 -12.68951416 110.22782898 C-10.13996553 122.40680716 -7.59629538 134.58698047 -5.06152344 146.76904297 C-3.99964724 151.86925373 -2.93716376 156.96933765 -1.87426758 162.06933594 C-1.60635469 163.35508011 -1.33844181 164.64082428 -1.06241035 165.9655304 C2.3380065 182.27201506 5.79544056 198.56472044 9.3321991 214.84217834 C11.06394696 222.81255732 12.77463128 230.78741402 14.4803133 238.76340771 C15.6284151 244.12432851 16.78833174 249.48207733 17.97738647 254.83407593 C26.13276691 291.58878494 33.0885791 328.49585822 12.45385742 362.70605469 C-2.59966526 385.15429027 -24.36384234 401.1981474 -50.92114258 407.01855469 C-76.93254017 411.67060554 -103.88626753 406.69240052 -125.68286133 391.52636719 C-127.96872305 389.79501642 -130.16868154 387.99454785 -132.35864258 386.14355469 C-133.57874023 385.14195312 -133.57874023 385.14195312 -134.82348633 384.12011719 C-151.76958801 369.65456968 -163.39866593 348.29201129 -166.35864258 326.14355469 C-166.65020488 321.55644812 -166.69249644 316.98896681 -166.67114258 312.39355469 C-166.66622803 311.15017334 -166.66131348 309.90679199 -166.65625 308.62573242 C-166.54683608 300.07517486 -166.05658473 292.31322692 -163.35864258 284.14355469 C-163.00672852 283.06847656 -162.65481445 281.99339844 -162.29223633 280.88574219 C-153.76342791 257.07263355 -137.0355976 236.49395663 -114.24194336 225.08398438 C-105.25772275 220.88119643 -96.14477604 217.87133249 -86.35864258 216.14355469 C-84.47145508 215.80324219 -84.47145508 215.80324219 -82.54614258 215.45605469 C-68.06379071 214.03205775 -53.99773392 215.48042638 -40.1003418 219.70288086 C-39.20950897 219.97275314 -38.31867615 220.24262543 -37.40084839 220.52067566 C-36.72692047 220.72622574 -36.05299255 220.93177582 -35.35864258 221.14355469 C-37.51157788 210.69086605 -39.66625179 200.23853718 -41.82249546 189.78653049 C-42.88571698 184.63212812 -43.94814002 179.47756333 -45.00894165 174.32266235 C-49.60126038 152.00722555 -54.21816573 129.6982213 -58.98545837 107.41941833 C-59.62264907 104.43892828 -60.25783679 101.45801922 -60.89221191 98.47692871 C-61.0978841 97.51047047 -61.30355629 96.54401222 -61.51546097 95.54826736 C-61.92460854 93.62533121 -62.33366464 91.70237559 -62.74262619 89.77939987 C-63.92951648 84.20477999 -65.12999688 78.63330168 -66.34030247 73.06372166 C-67.09226091 69.58818546 -67.83154903 66.11003848 -68.56763268 62.63110924 C-68.9074609 61.03806369 -69.25251476 59.44612114 -69.60355568 57.8555088 C-73.17678884 41.64416747 -74.85377903 26.19587698 -65.60864258 11.39355469 C-58.71645508 1.88886719 -49.50863019 -6.279611 -37.63208008 -8.60644531 C-23.23751868 -10.18935241 -12.32675377 -7.4227854 0 0 Z " fill="#000000" transform="translate(294.358642578125,50.8564453125)"/>
</svg>
