<?xml version="1.0" encoding="UTF-8"?>
<svg version="1.1" xmlns="http://www.w3.org/2000/svg" width="512" height="512">
<path d="M0 0 C17.94583135 13.55516509 28.87397201 32.33759144 32.35302734 54.47583008 C35.27035531 75.75122895 29.56427152 97.03709766 16.79052734 114.22973633 C3.60868622 130.91909344 -13.90156574 142.14524607 -35.14306641 145.44848633 C-59.3558791 147.2875883 -81.26943217 143.27425376 -100.16650391 127.28442383 C-101.85862211 125.71269348 -103.41185446 124.10016953 -104.95556641 122.38598633 C-105.67744141 121.74661133 -106.39931641 121.10723633 -107.14306641 120.44848633 C-110.63174701 120.80590525 -113.23786367 121.84948231 -116.24072266 123.60864258 C-117.02713135 124.06400391 -117.81354004 124.51936523 -118.6237793 124.98852539 C-119.47576904 125.4909375 -120.32775879 125.99334961 -121.20556641 126.51098633 C-123.10118613 127.61161473 -124.99703122 128.71185504 -126.89306641 129.81176758 C-128.4109375 130.69662842 -128.4109375 130.69662842 -129.95947266 131.59936523 C-134.93891053 134.49156327 -139.94211913 137.34187284 -144.94454956 140.19406128 C-147.92978771 141.89674117 -150.91328053 143.60247422 -153.89697266 145.30786133 C-155.10806478 145.99993286 -156.31916504 146.69199015 -157.53027344 147.3840332 C-158.12849915 147.72587646 -158.72672485 148.06771973 -159.34307861 148.41992188 C-164.67382817 151.46606448 -164.67382817 151.46606448 -166.42471313 152.46656799 C-167.58843227 153.13155181 -168.75214891 153.79654001 -169.91586304 154.46153259 C-172.82064023 156.12143069 -175.72546098 157.78125249 -178.63037109 159.44091797 C-183.92813063 162.46779243 -189.2255451 165.49526372 -194.52139282 168.52548218 C-205.88097092 175.02523839 -217.24425046 181.51766766 -228.64306641 187.94848633 C-236.80881011 192.55621599 -244.96328236 197.18331111 -253.10644531 201.83081055 C-254.31732806 202.52178431 -255.52842045 203.21239085 -256.73974609 203.90258789 C-263.29708504 207.63964518 -269.81371038 211.41644693 -276.22387695 215.40185547 C-278.14306641 216.44848633 -278.14306641 216.44848633 -280.14306641 216.44848633 C-279.82474854 217.52163086 -279.82474854 217.52163086 -279.5 218.61645508 C-277.36475168 226.3518831 -276.68252241 233.44537008 -276.76806641 241.44848633 C-276.75646484 242.53387695 -276.74486328 243.61926758 -276.73291016 244.73754883 C-276.76018361 252.35593407 -277.97880978 259.15213142 -280.14306641 266.44848633 C-279.06375854 266.8579248 -279.06375854 266.8579248 -277.96264648 267.27563477 C-275.18968621 268.42909404 -272.64827271 269.7458732 -270.02978516 271.21411133 C-269.04187988 271.76703857 -268.05397461 272.31996582 -267.03613281 272.88964844 C-265.9782959 273.48656494 -264.92045898 274.08348145 -263.83056641 274.69848633 C-262.72116699 275.32182861 -261.61176758 275.9451709 -260.46875 276.58740234 C-252.02952595 281.34500145 -243.66060414 286.21762024 -235.30786133 291.12524414 C-227.81391972 295.51271496 -220.24589434 299.75296394 -212.64306641 303.94848633 C-203.03723406 309.24934083 -193.52631878 314.68627732 -184.06762695 320.24487305 C-175.87203295 325.05065929 -167.59807497 329.70619163 -159.30029297 334.33276367 C-152.60367475 338.06745652 -145.92502222 341.83103665 -139.26806641 345.63598633 C-138.0022876 346.35685425 -138.0022876 346.35685425 -136.7109375 347.09228516 C-132.36450972 349.57481744 -128.04640951 352.09620449 -123.75634766 354.67504883 C-122.88671387 355.19301025 -122.01708008 355.71097168 -121.12109375 356.24462891 C-119.46795421 357.23133366 -117.82075412 358.22808151 -116.18066406 359.23632812 C-115.44509277 359.67372314 -114.70952148 360.11111816 -113.95166016 360.56176758 C-113.310271 360.95146729 -112.66888184 361.34116699 -112.00805664 361.74267578 C-109.64681888 362.63629253 -108.47504042 362.33016502 -106.14306641 361.44848633 C-104.65100566 360.13123137 -104.65100566 360.13123137 -103.26806641 358.44848633 C-91.16858787 345.91136708 -72.44744581 337.76074324 -55.13916016 337.11254883 C-29.29824324 336.75397378 -8.6840523 342.72433925 10.38818359 360.85473633 C25.8054593 377.11679427 33.72566211 398.57947046 33.14208984 420.88208008 C31.33466354 443.48728847 22.26387874 463.01819005 5.60693359 478.63598633 C-14.13569542 495.3333918 -36.13310744 498.97954471 -61.14306641 497.44848633 C-76.13461112 495.75098593 -91.15337893 487.54711806 -102.14306641 477.44848633 C-102.84818359 476.81168945 -103.55330078 476.17489258 -104.27978516 475.51879883 C-118.66060348 461.87756545 -127.72217326 442.47117798 -128.34619141 422.62817383 C-128.36724108 420.86000092 -128.3827558 419.09175447 -128.39306641 417.32348633 C-128.42400391 416.0318457 -128.42400391 416.0318457 -128.45556641 414.71411133 C-128.49915406 407.32600463 -127.01732769 400.57378884 -125.14306641 393.44848633 C-137.24380529 386.32771094 -149.37393498 379.27576594 -161.64306641 372.44848633 C-169.86508969 367.87280725 -178.02880904 363.21266234 -186.14306641 358.44848633 C-195.3674174 353.03397934 -204.66321112 347.76217938 -214.00512695 342.5534668 C-223.12875457 337.46541302 -232.20230231 332.29397185 -241.26416016 327.09692383 C-244.45057722 325.27240822 -247.64032586 323.45380785 -250.83056641 321.63598633 C-265.9881118 312.99673104 -281.09249728 304.2732509 -296.14306641 295.44848633 C-299.73327553 298.49219691 -303.25678162 301.55339759 -306.64306641 304.82348633 C-324.53133113 320.42814279 -347.42565372 322.69273884 -370.14306641 321.44848633 C-384.37538095 319.87444509 -399.62658553 312.08380487 -410.14306641 302.44848633 C-411.04669922 301.62477539 -411.95033203 300.80106445 -412.88134766 299.95239258 C-422.1238769 291.13509472 -428.57564599 281.37102859 -433.14306641 269.44848633 C-433.53751953 268.42110352 -433.93197266 267.3937207 -434.33837891 266.33520508 C-440.87449346 246.15552274 -438.48084057 223.90818218 -429.33056641 205.07348633 C-425.10688831 196.81833953 -419.95187996 189.78226638 -413.14306641 183.44848633 C-412.48177734 182.78204102 -411.82048828 182.1155957 -411.13916016 181.42895508 C-394.25479272 165.10090947 -373.47958513 160.90137879 -350.68994141 161.17895508 C-329.68011338 161.78512266 -311.32531888 172.4453961 -297.14306641 187.44848633 C-288.19606825 182.83160587 -279.4487198 177.92361689 -270.76806641 172.82348633 C-262.52562159 167.98186126 -254.24391293 163.2257316 -245.89306641 158.57348633 C-237.01016511 153.62315931 -228.15618622 148.62513331 -219.33056641 143.57348633 C-218.74811157 143.24012268 -218.16565674 142.90675903 -217.56555176 142.56329346 C-214.60713109 140.86974919 -211.64916775 139.17540807 -208.69140625 137.48071289 C-203.42650098 134.46460015 -198.15757914 131.45551795 -192.88894653 128.44592285 C-191.14335333 127.44865025 -189.3979407 126.45106238 -187.65258789 125.45336914 C-182.36686197 122.43203071 -177.0804318 119.4119532 -171.79083252 116.3973999 C-156.18777826 107.50502753 -140.63549925 98.53233368 -125.14306641 89.44848633 C-125.37372803 88.589729 -125.60438965 87.73097168 -125.84204102 86.84619141 C-130.04101784 70.67353973 -129.39951661 54.25241884 -124.14306641 38.44848633 C-123.79244141 37.3940332 -123.44181641 36.33958008 -123.08056641 35.25317383 C-116.02405368 16.48481013 -101.16974292 1.16160145 -83.20117188 -7.48608398 C-55.99685566 -19.72836372 -24.39349009 -17.63389052 0 0 Z M-83.02587891 33.07739258 C-91.96532302 43.08891025 -95.9705906 55.62276042 -95.52587891 68.96411133 C-94.10288656 81.91624573 -88.37923023 94.18237784 -78.14306641 102.44848633 C-66.80932943 110.50242613 -54.759737 114.45938264 -40.89306641 112.94848633 C-28.11511644 110.70065334 -16.51838943 103.83369862 -8.95556641 93.26098633 C-1.36404187 81.14773406 1.83020424 68.56255496 -1.26806641 54.51098633 C-4.92940739 41.1830208 -12.43953582 31.06325568 -24.24853516 23.98754883 C-44.59329669 13.16995632 -66.43116998 16.94515915 -83.02587891 33.07739258 Z M-393.54931641 210.51098633 C-403.39196764 222.47656234 -405.60827272 235.37483079 -404.14306641 250.44848633 C-401.80265411 262.84709908 -394.03592589 273.79549238 -383.83056641 281.10473633 C-371.74795966 288.80739813 -358.6725986 290.43608342 -344.66650391 287.79223633 C-331.64381306 283.88879411 -321.01569394 274.79918905 -314.43212891 263.02270508 C-308.80504769 251.78559441 -308.09267268 238.00184728 -311.70556641 225.94848633 C-316.65135094 213.35763344 -325.99449642 203.30402976 -338.14306641 197.44848633 C-344.29168906 194.91705412 -349.82262389 193.92438371 -356.45556641 194.01098633 C-357.69777954 194.02343384 -357.69777954 194.02343384 -358.96508789 194.03613281 C-372.92743894 194.41834622 -384.00595473 200.42743437 -393.54931641 210.51098633 Z M-83.02587891 385.07739258 C-91.96532302 395.08891025 -95.9705906 407.62276042 -95.52587891 420.96411133 C-94.10288656 433.91624573 -88.37923023 446.18237784 -78.14306641 454.44848633 C-66.80932943 462.50242613 -54.759737 466.45938264 -40.89306641 464.94848633 C-28.11511644 462.70065334 -16.51838943 455.83369862 -8.95556641 445.26098633 C-1.36404187 433.14773406 1.83020424 420.56255496 -1.26806641 406.51098633 C-4.92940739 393.1830208 -12.43953582 383.06325568 -24.24853516 375.98754883 C-44.59329669 365.16995632 -66.43116998 368.94515915 -83.02587891 385.07739258 Z " fill="#000000" transform="translate(458.14306640625,14.551513671875)"/>
</svg>
