<?xml version="1.0" encoding="UTF-8"?>
<svg version="1.1" xmlns="http://www.w3.org/2000/svg" width="512" height="512">
<path d="M0 0 C0.79921875 0.020625 1.5984375 0.04125 2.421875 0.0625 C10.49893469 2.73997835 17.24921048 11.8248652 23.1484375 17.6953125 C24.06460846 18.60578339 24.98077942 19.51625427 25.92471313 20.45431519 C27.84770671 22.36689567 29.76843775 24.28171829 31.68798828 26.19775391 C34.1424436 28.64668486 36.60607658 31.08616604 39.07187462 33.52366829 C41.43729286 35.86598059 43.79212135 38.21884436 46.1484375 40.5703125 C47.03171722 41.44124542 47.91499695 42.31217834 48.82504272 43.20950317 C49.63994171 44.02740326 50.4548407 44.84530334 51.29443359 45.68798828 C52.01198822 46.40189728 52.72954285 47.11580627 53.46884155 47.85134888 C56.83918822 51.91707316 57.47382328 55.61553367 57.61328125 60.83984375 C56.6934598 66.30931968 53.4367777 70.19993267 49.66186523 74.05566406 C49.2093187 74.52149902 48.75677216 74.98733398 48.29051208 75.46728516 C46.80463417 76.99158335 45.30770329 78.50434472 43.80859375 80.015625 C42.76059672 81.07836196 41.71267003 82.1411683 40.66481018 83.20404053 C38.47055861 85.42520996 36.26973385 87.63963886 34.06518555 89.85058594 C31.25443298 92.67220495 28.47000852 95.51835937 25.6911459 98.37134171 C23.53669857 100.57437106 21.36429122 102.75901407 19.18669319 104.93914032 C18.15273107 105.98029133 17.12533092 107.02800526 16.10500908 108.08252716 C10.80667774 113.54469965 6.33758488 117.98479782 -1.49229431 119.02874756 C-6.35227905 118.96686496 -10.69567971 117.80427176 -14.38671875 114.5625 C-17.78603158 110.66643945 -18.91315231 107.31210081 -19.0625 102.25 C-19.09988281 101.43015625 -19.13726562 100.6103125 -19.17578125 99.765625 C-18.03577885 92.36083879 -12.66470796 87.52250917 -7.5 82.5625 C-6.8503125 81.92634766 -6.200625 81.29019531 -5.53125 80.63476562 C-3.9441835 79.08270795 -2.35052498 77.53815441 -0.75 76 C-37.76248348 75.24635215 -68.63107919 82.30329455 -96.60546875 107.73828125 C-106.33419876 117.51921977 -113.76787019 128.72071273 -121.23779297 140.24755859 C-124.41963013 145.15611927 -127.62714244 150.04787816 -130.83203125 154.94140625 C-131.49006744 155.94736847 -132.14810364 156.95333069 -132.82608032 157.98977661 C-140.11555871 169.11717391 -147.57360868 180.12885502 -155.03915405 191.13851929 C-161.9825348 201.3829892 -168.86572335 211.66146882 -175.6328125 222.0234375 C-176.2840509 223.01905701 -176.93528931 224.01467651 -177.60626221 225.04046631 C-180.73132094 229.81984734 -183.84719676 234.60476337 -186.94726562 239.40039062 C-193.32133904 249.20099656 -199.93693172 258.29329377 -207.75 267 C-208.94046921 268.39330183 -210.12871501 269.78851464 -211.3125 271.1875 C-235.14129304 298.05109215 -266.83913946 316.4564611 -301.375 325.8125 C-302.04063965 325.99522461 -302.7062793 326.17794922 -303.39208984 326.36621094 C-305.83308209 326.98489297 -308.28189766 327.49919838 -310.75 328 C-311.97001709 328.25966553 -313.19003418 328.51933105 -314.44702148 328.78686523 C-328.64471195 331.55062641 -342.938282 331.49560897 -357.34301758 331.44604492 C-360.8924632 331.43440267 -364.44093619 331.45506669 -367.9902544 331.48396206 C-370.75532753 331.5023233 -373.52016526 331.50203476 -376.28528404 331.49632454 C-378.22511894 331.49609892 -380.16493206 331.51291806 -382.10469055 331.53013611 C-392.94531024 331.44391763 -392.94531024 331.44391763 -397.75 327 C-401.83354816 322.47498717 -403.06629418 319.2093471 -402.96484375 313.0546875 C-402.36965996 307.36256618 -398.89968096 303.63097084 -394.75 300 C-392.07425425 299.10808475 -390.48289256 298.86345327 -387.73535156 298.82641602 C-386.92809128 298.81282547 -386.12083099 298.79923492 -385.28910828 298.78523254 C-384.4151088 298.77489487 -383.54110931 298.76455719 -382.640625 298.75390625 C-380.76309595 298.7227053 -378.88557334 298.69111489 -377.00805664 298.65917969 C-376.02612335 298.64383179 -375.04419006 298.62848389 -374.03250122 298.6126709 C-319.99486344 297.71865087 -275.84211203 288.02956209 -236.43359375 248.6875 C-231.93200443 243.9201639 -228.06940124 238.79123863 -224.30859375 233.4375 C-223.78861313 232.6986557 -223.26863251 231.9598114 -222.7328949 231.19857788 C-217.02304917 223.03432894 -211.56092438 214.71018144 -206.10940552 206.3722229 C-194.28392969 188.2926869 -182.28775753 170.33389413 -170.17871094 152.44335938 C-164.55007991 144.12545097 -158.93571881 135.79968767 -153.390625 127.42578125 C-152.89038315 126.67116104 -152.3901413 125.91654083 -151.8747406 125.13905334 C-149.56856218 121.65899937 -147.26721017 118.17594093 -144.97485352 114.68676758 C-137.78516251 103.79101383 -130.32437769 92.95418218 -120.9375 83.8125 C-120.34912354 83.2335498 -119.76074707 82.65459961 -119.15454102 82.05810547 C-91.20003575 55.04152038 -55.70374927 43.12924698 -17.4375 42.375 C-15.81052858 42.33670687 -14.18357498 42.29764913 -12.55664062 42.2578125 C-8.62124286 42.16308353 -4.6857512 42.07861915 -0.75 42 C-1.36258667 41.410979 -1.36258667 41.410979 -1.98754883 40.81005859 C-3.85391581 39.00649567 -5.70818569 37.19094919 -7.5625 35.375 C-8.20509766 34.75753906 -8.84769531 34.14007813 -9.50976562 33.50390625 C-13.85681145 29.22443109 -17.21107164 25.45690981 -18.18359375 19.21875 C-18.19210479 13.29506542 -17.89004919 9.58762207 -13.75 5 C-9.31248384 0.89529756 -5.98564924 -0.30500124 0 0 Z " fill="#000000" transform="translate(428.75,69)"/>
<path d="M0 0 C3.6180468 1.2060156 4.03017828 2.15741455 6.0390625 5.3046875 C6.6151123 6.19325439 7.19116211 7.08182129 7.78466797 7.99731445 C8.39197754 8.94695068 8.99928711 9.89658691 9.625 10.875 C14.70233875 18.64767581 19.76853558 26.09519463 26 33 C26.60457031 33.68578125 27.20914063 34.3715625 27.83203125 35.078125 C46.67837157 55.23379001 74.99110833 66.33650846 102.11328125 67.8828125 C109.74185225 68.11281967 117.36910797 68.07321751 125 68 C124.59160889 67.60731934 124.18321777 67.21463867 123.76245117 66.81005859 C121.89608419 65.00649567 120.04181431 63.19094919 118.1875 61.375 C117.54490234 60.75753906 116.90230469 60.14007813 116.24023438 59.50390625 C111.89318855 55.22443109 108.53892836 51.45690981 107.56640625 45.21875 C107.55567156 37.7474084 109.0286999 34.23347363 114.125 28.6875 C118.22592576 26.28043488 122.2655274 25.6226145 127 26 C134.65694239 28.21317359 139.42709271 33.86399278 144.89453125 39.3984375 C145.93282982 40.4365809 146.97179692 41.47405604 148.01139832 42.51089478 C150.18027259 44.67838949 152.34204949 46.85264902 154.4987793 49.03222656 C157.25863953 51.8205232 160.0338479 54.59292197 162.81430531 57.36066246 C164.95867261 59.49806536 167.09559234 61.64278947 169.23026085 63.78987503 C170.25083832 64.81495582 171.27349536 65.83797066 172.29828835 66.85883713 C173.72942382 68.28705183 175.14974448 69.72607854 176.56958008 71.16552734 C177.37897537 71.98032562 178.18837067 72.7951239 179.02229309 73.63461304 C182.52324064 77.82183393 183.21876826 81.42616475 183.36328125 86.83984375 C182.44546143 92.2974175 179.22595845 96.15106725 175.42431641 99.96386719 C174.49970612 100.89793396 173.57509583 101.83200073 172.62246704 102.79437256 C171.61588007 103.7955901 170.60890235 104.79641494 169.6015625 105.796875 C168.56363824 106.83682246 167.52615947 107.87721472 166.48910522 108.91802979 C164.32016854 111.09137622 162.14593225 113.25923722 159.96777344 115.42333984 C157.18121074 118.1927902 154.40836296 120.97552131 151.63933754 123.76249313 C149.50174205 125.91094467 147.35703348 128.05218067 145.21012497 130.19132233 C144.18489963 131.2145518 143.16188325 132.23999965 142.14116287 133.26772308 C140.71287386 134.7036582 139.27388212 136.12892339 137.83447266 137.55371094 C137.01967438 138.36612244 136.2048761 139.17853394 135.36538696 140.01556396 C131.19098284 143.51767085 127.4332752 144.4138767 121.984375 144.25 C116.43233105 143.5505299 112.35487771 140.28678819 109 136 C107.04543537 131.15527346 106.35435501 126.18580378 107.9140625 121.1015625 C111.76339261 113.65213949 119.11459535 107.86641607 125 102 C124.02877197 101.98541748 123.05754395 101.97083496 122.05688477 101.95581055 C118.36433681 101.89670698 114.67232982 101.81951244 110.98022461 101.73754883 C109.3989354 101.70481488 107.81754372 101.67663329 106.23608398 101.65356445 C69.01321749 101.09658428 35.66040743 87.99097473 8 63 C7.4946875 62.5467334 6.989375 62.0934668 6.46875 61.62646484 C-2.68311806 53.29981405 -16.26964373 40.34773061 -19 28 C-17.79624263 25.51015555 -16.64244984 23.59519118 -15.0390625 21.38671875 C-14.61450775 20.77230423 -14.189953 20.15788971 -13.75253296 19.52485657 C-12.39356824 17.56663276 -11.00998074 15.62738547 -9.625 13.6875 C-8.69884266 12.36249957 -7.774342 11.03633948 -6.8515625 9.70898438 C-4.58670691 6.45889145 -2.2996088 3.22558545 0 0 Z " fill="#000000" transform="translate(303,299)"/>
<path d="M0 0 C1.15648544 -0.00960754 2.31297089 -0.01921509 3.50450134 -0.02911377 C4.76057693 -0.03336365 6.01665253 -0.03761353 7.31079102 -0.04199219 C8.61307144 -0.04769226 9.91535187 -0.05339233 11.25709534 -0.05926514 C14.02703234 -0.06978285 16.79694037 -0.07561646 19.56689453 -0.07910156 C22.36846264 -0.08344109 25.16971492 -0.0971502 27.97119141 -0.12011719 C43.97089684 -0.24864476 59.64259876 -0.1152521 75.37719727 3.16113281 C76.44478271 3.38027344 77.51236816 3.59941406 78.61230469 3.82519531 C81.18561718 4.4085372 83.71469415 5.06402899 86.25219727 5.78613281 C87.15236572 6.03919189 88.05253418 6.29225098 88.97998047 6.55297852 C115.2501305 14.23285673 140.07476785 27.35161806 160.15063477 46.08691406 C162.17672223 47.97437449 164.25616632 49.75733993 166.37719727 51.53613281 C171.48682166 55.98109062 175.94591619 61.05159443 180.37719727 66.16113281 C181.54508789 67.41023438 181.54508789 67.41023438 182.73657227 68.68457031 C184.37719727 71.16113281 184.37719727 71.16113281 184.21826172 73.44360352 C183.17489211 76.8147928 181.56969482 79.21641412 179.56079102 82.11816406 C179.1848732 82.66599045 178.80895538 83.21381683 178.42164612 83.77824402 C177.22697396 85.51546253 176.02109152 87.24453992 174.81469727 88.97363281 C173.99948957 90.15475299 173.18502813 91.3363886 172.37133789 92.51855469 C170.38189439 95.40543085 168.38232443 98.28512065 166.37719727 101.16113281 C162.48879326 99.86499814 161.72611029 98.17769889 159.37719727 94.84863281 C136.60973443 63.4789731 102.36630152 43.27059993 64.56469727 35.78613281 C63.77836914 35.63023682 62.99204102 35.47434082 62.18188477 35.3137207 C50.70817492 33.26568227 39.02315996 33.1196394 27.40063477 32.98535156 C25.97703392 32.96728455 25.97703392 32.96728455 24.52467346 32.94885254 C20.5996797 32.90046744 16.67502687 32.85275996 12.74975586 32.83520508 C9.84121469 32.81974676 6.93386114 32.77963696 4.02563477 32.73535156 C3.14434906 32.73725998 2.26306335 32.7391684 1.35507202 32.74113464 C-4.12169995 32.63216352 -7.27351446 31.79640249 -11.62280273 28.16113281 C-15.7063509 23.63611998 -16.93909692 20.37047991 -16.83764648 14.21582031 C-16.2424627 8.523699 -12.77248369 4.79210365 -8.62280273 1.16113281 C-5.49562574 0.11874048 -3.28201087 0.02204208 0 0 Z " fill="#000000" transform="translate(42.622802734375,111.8388671875)"/>
</svg>
