<?xml version="1.0" encoding="UTF-8"?>
<svg version="1.1" xmlns="http://www.w3.org/2000/svg" width="512" height="512">
<path d="M0 0 C1.01790619 0.00215515 2.03581238 0.0043103 3.08456421 0.00653076 C17.69363523 0.05620146 32.02575853 0.30709809 46.375 3.3125 C47.34985352 3.51117676 48.32470703 3.70985352 49.32910156 3.91455078 C88.38660539 12.08468046 124.82400319 27.71035417 156.375 52.3125 C157.25929688 52.98539063 158.14359375 53.65828125 159.0546875 54.3515625 C174.64162389 66.45260257 189.26666068 80.75087979 201.375 96.3125 C202.15101563 97.2715625 202.92703125 98.230625 203.7265625 99.21875 C238.25804162 142.62975232 256.81395322 197.76040062 256.69067383 253.03979492 C256.6875221 255.97938487 256.71104926 258.9179558 256.73632812 261.85742188 C256.78098737 275.23056192 255.57551542 288.12666711 253.375 301.3125 C253.09281616 303.01805054 253.09281616 303.01805054 252.80493164 304.75805664 C245.77946967 343.86954746 228.79665906 381.05202178 204.375 412.3125 C203.61574219 413.28445313 202.85648437 414.25640625 202.07421875 415.2578125 C189.73986402 430.63741644 175.93895499 445.19015196 160.375 457.3125 C159.43914062 458.07691406 158.50328125 458.84132813 157.5390625 459.62890625 C125.58628299 485.2157721 86.41988322 501.72551276 46.375 509.3125 C45.56562988 509.47621094 44.75625977 509.63992188 43.92236328 509.80859375 C13.88110013 515.67977137 -20.7615176 514.58512909 -50.625 508.3125 C-52.14794678 507.99901611 -52.14794678 507.99901611 -53.70166016 507.67919922 C-90.84546555 499.78695344 -125.70945445 483.68345578 -155.625 460.3125 C-156.59695312 459.55324219 -157.56890625 458.79398437 -158.5703125 458.01171875 C-173.94991644 445.67736402 -188.50265196 431.87645499 -200.625 416.3125 C-201.77162109 414.90871094 -201.77162109 414.90871094 -202.94140625 413.4765625 C-228.5282721 381.52378299 -245.03801276 342.35738322 -252.625 302.3125 C-252.78871094 301.50312988 -252.95242187 300.69375977 -253.12109375 299.85986328 C-258.59069558 271.87335724 -258.46977511 238.21828161 -252.625 210.3125 C-252.42632324 209.33764648 -252.22764648 208.36279297 -252.02294922 207.35839844 C-241.93598313 159.13741149 -219.89911449 114.53770064 -185.40722656 79.14160156 C-183.63301167 77.32072238 -181.87518486 75.48496071 -180.1171875 73.6484375 C-173.01832106 66.31138736 -165.60682072 59.74213624 -157.41796875 53.64794922 C-155.58092428 52.27967127 -153.75911069 50.89264471 -151.9375 49.50390625 C-143.51077324 43.13790222 -134.81596417 37.50688619 -125.625 32.3125 C-124.99464844 31.94946777 -124.36429688 31.58643555 -123.71484375 31.21240234 C-85.96656579 9.60246645 -43.19754839 -0.16448837 0 0 Z M-155.625 96.3125 C-156.12241699 96.78268555 -156.61983398 97.25287109 -157.13232422 97.73730469 C-165.13838763 105.33444934 -172.03249721 113.47194153 -178.625 122.3125 C-179.05022949 122.87163086 -179.47545898 123.43076172 -179.91357422 124.00683594 C-187.16970107 133.56450244 -193.10360829 143.66807576 -198.625 154.3125 C-199.01574707 155.06128418 -199.40649414 155.81006836 -199.80908203 156.58154297 C-215.67172991 187.3682599 -223.08020261 221.12664341 -223 255.625 C-222.99912384 256.54836151 -222.99824768 257.47172302 -222.99734497 258.42306519 C-222.81378459 317.25448491 -199.15704805 371.11475135 -158.625 413.3125 C-157.7690625 414.2096875 -156.913125 415.106875 -156.03125 416.03125 C-150.26417803 421.9443238 -144.1837581 427.29642238 -137.625 432.3125 C-136.98030762 432.8065332 -136.33561523 433.30056641 -135.67138672 433.80957031 C-124.83901324 442.03586549 -113.72845013 449.11374313 -101.625 455.3125 C-100.8820166 455.69889648 -100.1390332 456.08529297 -99.37353516 456.48339844 C-47.31468466 483.31692993 13.98450289 486.84888824 69.49414062 469.26123047 C102.96928428 458.23712808 132.08101384 439.60803934 157.375 415.3125 C158.72078125 414.02859375 158.72078125 414.02859375 160.09375 412.71875 C166.01226517 406.94637101 171.31283335 400.84514578 176.375 394.3125 C176.79894043 393.77028809 177.22288086 393.22807617 177.65966797 392.66943359 C208.01011115 353.60307944 223.86836364 305.74996348 223.75 256.4375 C223.74912384 255.5403125 223.74824768 254.643125 223.74734497 253.71875 C223.55922394 195.06143939 199.70451388 141.38198287 159.375 99.3125 C158.48039062 98.36503906 157.58578125 97.41757813 156.6640625 96.44140625 C149.75998731 89.30449568 142.30488392 83.24414885 134.375 77.3125 C133.81441895 76.88582031 133.25383789 76.45914063 132.67626953 76.01953125 C123.12016384 68.76526124 113.01727007 62.83277431 102.375 57.3125 C101.62621582 56.92175293 100.87743164 56.53100586 100.10595703 56.12841797 C16.70694409 13.15764006 -86.89826482 30.68228687 -155.625 96.3125 Z " fill="#000000" transform="translate(255.625,-0.3125)"/>
<path d="M0 0 C3.88446678 2.58964452 6.69907021 5.64814041 8.8125 9.875 C8.90623088 11.77554766 8.93440917 13.67944907 8.93275452 15.58230591 C8.93412918 16.79669342 8.93550385 18.01108093 8.93692017 19.26226807 C8.9333808 20.61511255 8.92974599 21.96795678 8.92602539 23.32080078 C8.92574344 24.73979694 8.92590141 26.15879324 8.9264679 27.57778931 C8.92675555 31.43706463 8.92086391 35.29630906 8.91389394 39.15557718 C8.90765516 43.18614452 8.90705618 47.21671252 8.90586853 51.24728394 C8.90275677 58.88290673 8.89454546 66.51851526 8.88451904 74.15413177 C8.87335311 82.84566741 8.86784624 91.53720372 8.86282361 100.22874475 C8.85236272 118.11083793 8.83476626 135.99291782 8.8125 153.875 C9.99064774 154.33008942 9.99064774 154.33008942 11.19259644 154.79437256 C13.72300585 155.83808649 15.44811939 156.93813825 17.5703125 158.640625 C18.26825928 159.19363281 18.96620605 159.74664062 19.68530273 160.31640625 C20.80014038 161.21166016 20.80014038 161.21166016 21.9375 162.125 C28.2977263 167.15229148 34.71078052 172.08255833 41.25 176.875 C42.03793945 177.4529834 42.82587891 178.0309668 43.63769531 178.62646484 C46.02808839 180.37763468 48.42017073 182.1264765 50.8125 183.875 C61.85964519 191.95984643 72.83505649 200.12547244 83.69677734 208.45849609 C87.36114044 211.2661992 91.02634138 214.05010911 94.8046875 216.703125 C98.66257607 219.48882116 100.24895775 221.49742759 101.34765625 226.1328125 C102.20651999 231.58618029 101.85750086 235.3896179 99.05859375 240.18359375 C96.04954783 244.26797269 92.70952771 246.39936858 87.71875 247.21875 C75.23802846 248.02918646 65.71931653 237.61472477 56.41015625 230.40625 C51.74254794 226.80269222 47.00516482 223.29933162 42.25 219.8125 C35.76004468 215.05044945 29.29959986 210.25300509 22.86865234 205.41162109 C18.53044497 202.15069392 14.1687195 198.92358508 9.79321289 195.71289062 C6.59302954 193.36339711 3.3989838 191.00568002 0.20703125 188.64501953 C-1.40085627 187.45648115 -3.01025493 186.26998459 -4.62109375 185.08544922 C-6.96336618 183.35864019 -9.29527906 181.61869117 -11.625 179.875 C-12.32874756 179.35945557 -13.03249512 178.84391113 -13.75756836 178.31274414 C-14.41378174 177.81766357 -15.06999512 177.32258301 -15.74609375 176.8125 C-16.31642334 176.38839844 -16.88675293 175.96429688 -17.47436523 175.52734375 C-20.77473512 172.34408832 -22.97092865 169.25595527 -23.68807125 164.68313503 C-23.68828053 163.53001355 -23.68848982 162.37689207 -23.68870544 161.18882751 C-23.69423984 160.54202752 -23.69977424 159.89522753 -23.70547634 159.22882754 C-23.71902087 157.07524897 -23.70414928 154.92284196 -23.68920898 152.76928711 C-23.69299442 151.21987925 -23.69849631 149.67047478 -23.70558167 148.12107849 C-23.71952326 143.92274044 -23.70837629 139.72481279 -23.69187045 135.5264976 C-23.67800348 131.12993101 -23.68448181 126.73338783 -23.68800354 122.33680725 C-23.69070408 114.9551839 -23.67724258 107.5737233 -23.65405273 100.19213867 C-23.6274341 91.6601122 -23.62569959 83.12835765 -23.6374411 74.59630388 C-23.6482223 66.38433795 -23.64202976 58.17247029 -23.62788582 49.96051216 C-23.62212997 46.46738929 -23.62220551 42.97433844 -23.62695122 39.48121452 C-23.6317256 35.36809369 -23.62160037 31.25527043 -23.59999657 27.14220619 C-23.59443516 25.63334532 -23.59395749 24.12445582 -23.59894943 22.61559296 C-23.60491211 20.55479541 -23.59237995 18.49490474 -23.57518005 16.43418884 C-23.57275016 15.28144439 -23.57032026 14.12869993 -23.56781673 12.94102383 C-22.9845774 8.23908589 -20.84183655 5.05608244 -17.1875 2.125 C-11.81018185 -1.90798861 -6.20464577 -2.18987498 0 0 Z " fill="#000000" transform="translate(263.1875,94.125)"/>
</svg>
