<?xml version="1.0" encoding="UTF-8"?>
<svg version="1.1" xmlns="http://www.w3.org/2000/svg" width="512" height="512">
<path d="M0 0 C1.54342323 -0.01073296 1.54342323 -0.01073296 3.11802673 -0.02168274 C4.24638443 -0.02437164 5.37474213 -0.02706055 6.53729248 -0.02983093 C8.32061729 -0.03968773 8.32061729 -0.03968773 10.13996887 -0.04974365 C14.08327593 -0.06949106 18.02656969 -0.08114455 21.96990967 -0.09111023 C23.32901784 -0.09515878 24.68812582 -0.09927573 26.04723358 -0.10346031 C32.43364216 -0.12250774 38.82003921 -0.13673915 45.20647073 -0.14507228 C52.57055233 -0.1548405 59.93433301 -0.18115068 67.29830861 -0.22157317 C72.9952492 -0.25176819 78.69210369 -0.26654438 84.38912272 -0.26985329 C87.78930823 -0.27220014 91.18917211 -0.28111203 94.58927155 -0.30631447 C98.38599158 -0.33063149 102.18192485 -0.32975386 105.97869873 -0.32279968 C107.0989595 -0.33560974 108.21922028 -0.3484198 109.37342834 -0.36161804 C115.8145446 -0.31862177 119.80213103 0.26123803 125.01678467 4.14717102 C128.95498714 9.12174256 130.13315864 12.86942315 130.16395569 19.09205627 C130.17468864 20.58488884 130.17468864 20.58488884 130.18563843 22.10787964 C130.18832733 23.19366806 130.19101624 24.27945648 130.19378662 25.39814758 C130.20035782 26.54655624 130.20692902 27.6949649 130.21369934 28.87817383 C130.23342176 32.68138189 130.24509221 36.48455049 130.25506592 40.28779602 C130.25914145 41.58701744 130.26321697 42.88623886 130.267416 44.22483063 C130.28612189 50.39179304 130.30068914 56.55873571 130.30902797 62.72572064 C130.31879515 69.83056485 130.3451058 76.93509708 130.38552886 84.0398314 C130.41939353 90.20465131 130.43117831 96.36934061 130.43523216 102.53424835 C130.4401021 105.15127936 130.45172757 107.76830694 130.47027016 110.38527679 C130.49462396 114.04997575 130.49370288 117.71386118 130.48675537 121.37861633 C130.50597046 122.99515358 130.50597046 122.99515358 130.52557373 124.64434814 C130.47262349 132.31944499 129.17093447 137.99302121 123.64178467 143.52217102 C118.35218829 146.79668307 113.21061401 147.91539792 107.01678467 147.14717102 C101.81506703 145.47204161 98.43801776 143.42371239 95.01678467 139.14717102 C91.28468926 131.66598781 91.54055852 124.10490671 91.50506592 115.92842102 C91.48819656 114.46010356 91.47004332 112.99180033 91.45066833 111.52351379 C91.40340662 107.68330843 91.37344401 103.84316084 91.347229 100.00276184 C91.3173023 96.07421973 91.27081398 92.14587622 91.22576904 88.21748352 C91.14000756 80.52747842 91.0725426 72.83745845 91.01678467 65.14717102 C90.14010541 66.02661566 89.26342615 66.9060603 88.36018085 67.81215477 C67.55478183 88.68251074 46.74164825 109.54512067 25.9189431 130.39820858 C23.3566919 132.96421195 20.79450615 135.53028067 18.23236084 138.09638977 C17.72227727 138.60726028 17.21219369 139.11813078 16.68665304 139.64448221 C8.42485094 147.91934243 0.16836345 156.199486 -8.08617612 164.4815902 C-16.55460868 172.97806565 -25.02871819 181.46884778 -33.50813752 189.9543587 C-38.27140685 194.72137696 -43.03200515 199.49100104 -47.78606224 204.2672081 C-52.25859239 208.76006062 -56.73806869 213.2458667 -61.22303009 217.72630882 C-62.86998901 219.37409484 -64.51436777 221.02446429 -66.15599251 222.67756462 C-68.39385027 224.93029942 -70.64071752 227.17364366 -72.89012146 229.4148407 C-73.54090941 230.07436717 -74.19169736 230.73389365 -74.86220616 231.41340578 C-79.50356893 236.00899112 -83.20324145 238.42783465 -89.92071533 238.45967102 C-90.73411377 238.47642883 -91.54751221 238.49318665 -92.38555908 238.51045227 C-99.62321621 237.49826864 -104.03383972 232.51055594 -108.9163208 227.55464172 C-109.68772903 226.78367157 -110.45913727 226.01270142 -111.25392151 225.21836853 C-113.79326076 222.67694497 -116.32181789 220.12507226 -118.85040283 217.57295227 C-120.61237129 215.80538663 -122.37500474 214.03848365 -124.13827515 212.2722168 C-128.29793637 208.10228481 -132.45085847 203.92573596 -136.60055459 199.74588889 C-141.79155999 194.51799239 -146.99298907 189.30050468 -152.19415283 184.0827179 C-161.46554416 174.77917915 -170.72765706 165.46645994 -179.98321533 156.14717102 C-183.28819811 157.58943041 -185.45393105 159.3762064 -187.98573303 161.92936707 C-188.77204605 162.71726624 -189.55835907 163.50516541 -190.36849976 164.31694031 C-191.22209076 165.182435 -192.07568176 166.04792969 -192.95513916 166.93965149 C-194.3461628 168.33762403 -195.73718768 169.73559533 -197.12825906 171.13352036 C-198.62091452 172.63542732 -200.11107805 174.13976802 -201.60059547 175.64478683 C-204.70956928 178.78562016 -207.82672985 181.91824123 -210.94529724 185.04954529 C-218.69167655 192.82998773 -226.42876434 200.61965252 -234.16088867 208.41426086 C-240.16764114 214.46953161 -246.17758764 220.52154478 -252.19817942 226.56305993 C-255.29527137 229.67164101 -258.38530036 232.78702266 -261.47013628 235.9077642 C-263.84841622 238.30984143 -266.23653537 240.70206395 -268.62310791 243.09590149 C-269.47062622 243.95734772 -270.31814453 244.81879395 -271.19134521 245.7063446 C-277.22765246 251.73328209 -282.44554621 256.70625791 -291.42071533 256.77217102 C-296.8917394 256.58351502 -300.311081 255.65975924 -304.39337158 251.98310852 C-308.00796835 247.80900414 -310.15129337 243.65631711 -310.42071533 238.08467102 C-309.66460406 231.27966956 -307.09252739 226.75718531 -302.30371094 221.95973206 C-301.8364781 221.48625926 -301.36924527 221.01278646 -300.88785386 220.524966 C-299.33359788 218.95486784 -297.76557463 217.39932667 -296.19708252 215.84346008 C-295.07417729 214.71512984 -293.95212372 213.58595149 -292.83085632 212.45599365 C-289.79244422 209.39939052 -286.74156848 206.35552272 -283.68770885 203.31436253 C-280.48856222 200.12536534 -277.29921196 196.92659455 -274.10827637 193.72938538 C-268.74873137 188.36256967 -263.38082267 183.00422795 -258.00811768 177.65058899 C-251.80273811 171.46697694 -245.61189986 165.26908692 -239.42841792 159.06358361 C-234.11251599 153.72951137 -228.78883546 148.40329685 -223.45861363 143.083534 C-220.27797022 139.9091165 -217.10006691 136.73208255 -213.92916107 133.54793549 C-210.94718347 130.55437638 -207.95553876 127.57082286 -204.95625496 124.5946064 C-203.85917744 123.50280362 -202.76546306 122.40760906 -201.67545128 121.30875206 C-200.18294264 119.80525568 -198.67855937 118.3147076 -197.1706543 116.82667542 C-196.33295376 115.99048298 -195.49525322 115.15429054 -194.63216782 114.29275894 C-190.59028943 111.01893448 -186.71785243 109.333025 -181.48321533 108.77217102 C-166.56175578 110.37089883 -154.7071076 127.28997833 -144.69415283 137.33857727 C-143.13924772 138.895351 -141.58411905 140.45190148 -140.02877808 142.00823975 C-135.96603526 146.07477279 -131.90630641 150.14430149 -127.847229 154.2144928 C-123.69257498 158.37943668 -119.53503448 162.54149708 -115.37774658 166.70381165 C-107.24343195 174.84880186 -99.11230311 182.99696438 -90.98321533 191.14717102 C-86.7419738 189.49798224 -83.9062578 186.34245275 -80.76965332 183.17411804 C-80.14961921 182.55579279 -79.52958511 181.93746753 -78.89076209 181.30040514 C-76.81165237 179.22459308 -74.73977762 177.14170708 -72.66778564 175.05879211 C-71.17995937 173.57040179 -69.69169275 172.08245154 -68.20301819 170.59490967 C-64.15963683 166.55210305 -60.12245943 162.5031516 -56.08634663 158.45309019 C-51.86850738 154.22276387 -47.64501855 149.99808585 -43.42211914 145.77281189 C-35.42485585 137.76932788 -27.43270525 129.76075844 -19.44236732 121.75036108 C-10.34602529 112.63167848 -1.24401594 103.51866191 7.85847998 94.40612292 C26.58423927 75.65944822 45.30285041 56.90564959 64.01678467 38.14717102 C62.76556824 38.14170258 62.76556824 38.14170258 61.48907471 38.13612366 C53.60347821 38.09815667 45.71829164 38.04120563 37.83298492 37.96326828 C33.77965242 37.92386617 29.72653478 37.89164239 25.67303467 37.87617493 C21.75646444 37.86095998 17.84048524 37.82643011 13.92417908 37.778862 C12.43482112 37.76409774 10.94537877 37.75613286 9.45594788 37.75528717 C0.54410454 37.74514387 -6.88462716 37.72527832 -13.85821533 31.46357727 C-17.7942482 25.32719269 -17.81963911 19.26606671 -16.98321533 12.14717102 C-15.27724886 6.83971978 -12.37223448 4.34749748 -7.98321533 1.14717102 C-5.02561176 0.16130316 -3.08512556 0.0147279 0 0 Z " fill="#000000" transform="translate(345.98321533203125,127.85282897949219)"/>
</svg>
