<?xml version="1.0" encoding="UTF-8"?>
<svg version="1.1" xmlns="http://www.w3.org/2000/svg" width="512" height="512">
<path d="M0 0 C3.88902581 3.16369565 7.59714453 6.51905813 11.29052734 9.90722656 C15.93837746 14.13199063 20.76325708 18.15808735 25.55126953 22.22216797 C27.07020712 23.5288806 28.56118086 24.86789382 30.05029297 26.20849609 C31.39994141 27.39185547 31.39994141 27.39185547 32.77685547 28.59912109 C33.53224609 29.27974609 34.28763672 29.96037109 35.06591797 30.66162109 C47.97431433 38.76613324 62.65290724 37.1319373 77.32250977 37.08984375 C97.19732906 37.07472867 113.92183624 39.13399585 129.08935547 53.40771484 C140.24585634 65.26149702 145.42445152 79.23916088 145.46044922 95.31005859 C145.48560718 97.38037393 145.51100524 99.45068637 145.53662109 101.52099609 C145.56531571 104.74852758 145.58936646 107.97600876 145.6081543 111.20361328 C145.62995254 114.34351903 145.66939474 117.48285385 145.71044922 120.62255859 C145.71062294 122.0495961 145.71062294 122.0495961 145.71080017 123.50546265 C145.93289103 138.73021444 152.492261 147.94440763 162.58154297 158.78662109 C165.80571106 162.31458618 168.80254529 165.99339847 171.79248047 169.72021484 C173.47859154 171.77760534 175.17995321 173.77634049 176.94873047 175.75927734 C189.18019689 189.54627394 195.09130278 204.00983204 194.42919922 222.68115234 C193.2006532 240.03652778 185.10575876 252.24036931 173.79296875 264.77246094 C169.32966772 269.74038987 164.99897123 274.826735 160.64306641 279.88867188 C159.27574408 281.45701834 157.87545462 282.99646371 156.47216797 284.53271484 C144.73983468 297.78448146 145.60253346 312.33742576 145.65185547 329.09912109 C145.70096862 345.78983825 145.66069238 360.17560443 136.15185547 374.59912109 C135.67232422 375.33646484 135.19279297 376.07380859 134.69873047 376.83349609 C126.03887325 389.02455723 113.09477349 396.0346331 98.71360779 399.17024231 C94.27715098 399.91297696 89.86661642 399.87728326 85.37841797 399.87255859 C83.31591253 399.89284594 81.25341256 399.91369669 79.19091797 399.93505859 C75.9831882 399.95761371 72.77567647 399.97412325 69.56787109 399.97998047 C66.44183272 399.98957543 63.31674093 400.023427 60.19091797 400.06005859 C59.24785797 400.05501312 58.30479797 400.04996765 57.3331604 400.04476929 C48.12620364 400.17879931 39.598014 402.6104517 32.58935547 408.78662109 C31.68056641 409.57423828 30.77177734 410.36185547 29.83544922 411.17333984 C28.94986328 411.97384766 28.06427734 412.77435547 27.15185547 413.59912109 C25.90082031 414.72253906 25.90082031 414.72253906 24.62451172 415.86865234 C22.97419799 417.35732397 21.32706234 418.84952623 19.68310547 420.34521484 C16.16618277 423.47679571 12.53439303 426.45113504 8.86669922 429.40380859 C7.11092608 430.82358486 5.37242659 432.26511197 3.65576172 433.73193359 C-8.59482948 444.04203115 -22.6511773 449.41168632 -38.79345703 448.87646484 C-57.21419576 447.20399368 -69.76364716 439.42144643 -82.98681641 427.29101562 C-87.63466652 423.06625155 -92.45954614 419.04015484 -97.24755859 414.97607422 C-98.76649619 413.66936159 -100.25746993 412.33034837 -101.74658203 410.98974609 C-102.64634766 410.20083984 -103.54611328 409.41193359 -104.47314453 408.59912109 C-105.22853516 407.91849609 -105.98392578 407.23787109 -106.76220703 406.53662109 C-119.65212191 398.44371251 -134.29461415 400.06619584 -148.94335938 400.10839844 C-169.84793838 400.12435857 -185.70780609 397.86224841 -201.52783203 383.00927734 C-213.71761432 370.34750012 -218.13972321 354.88924284 -218.12158203 337.69287109 C-218.14186287 335.62906351 -218.16271349 333.56526145 -218.18408203 331.50146484 C-218.20666715 328.29585033 -218.22316033 325.0904561 -218.22900391 321.88476562 C-218.23858226 318.75791121 -218.27240601 315.63200933 -218.30908203 312.50537109 C-218.30403656 311.56028687 -218.29899109 310.61520264 -218.29379272 309.64147949 C-218.44427863 299.33987924 -221.94261292 291.73467267 -228.91064453 284.28662109 C-230.07669908 282.99036642 -231.2420521 281.69348038 -232.40673828 280.39599609 C-232.98665527 279.75855469 -233.56657227 279.12111328 -234.1640625 278.46435547 C-238.05434207 274.1556086 -241.7744364 269.69973159 -245.48339844 265.23486328 C-246.4147124 264.11861935 -247.35217552 263.00748431 -248.29492188 261.90087891 C-259.620037 248.57234979 -266.60790176 234.31638596 -266.09033203 216.34521484 C-264.43797157 197.60957928 -256.95313547 184.99166914 -244.54443359 171.46484375 C-240.30451812 166.80142491 -236.25247349 161.96872845 -232.17773438 157.16113281 C-230.94845449 155.71696596 -229.7055218 154.28445042 -228.46142578 152.85302734 C-227.76404297 152.02673828 -227.06666016 151.20044922 -226.34814453 150.34912109 C-225.76033203 149.66333984 -225.17251953 148.97755859 -224.56689453 148.27099609 C-219.74976799 140.78255393 -218.27193059 133.69739965 -218.37939453 124.90380859 C-218.37234497 123.91269073 -218.36529541 122.92157288 -218.35803223 121.90042114 C-218.32890016 117.71260364 -218.34503559 113.52526902 -218.35742188 109.33740234 C-218.37412268 88.04053519 -216.45662885 69.98538919 -201.13330078 53.81787109 C-189.3217208 42.34953361 -175.04186695 37.12267778 -158.69580078 37.22802734 C-156.59879391 37.21064886 -154.50178873 37.19306444 -152.40478516 37.17529297 C-149.15548571 37.16523929 -145.90629677 37.16162338 -142.65698242 37.16333008 C-122.03866552 37.65573617 -122.03866552 37.65573617 -104.22314453 28.41162109 C-103.32337891 27.62400391 -102.42361328 26.83638672 -101.49658203 26.02490234 C-100.62259766 25.22439453 -99.74861328 24.42388672 -98.84814453 23.59912109 C-97.59904297 22.47570313 -97.59904297 22.47570313 -96.32470703 21.32958984 C-94.672508 19.84156831 -93.0240653 18.34936547 -91.37939453 16.85302734 C-87.86247183 13.72144648 -84.23068209 10.74710715 -80.56298828 7.79443359 C-78.80721514 6.37465733 -77.06871565 4.93313022 -75.35205078 3.46630859 C-54.03657879 -14.47279264 -22.85775493 -17.32599707 0 0 Z M-56.03564453 30.53662109 C-57.33722808 31.70905118 -58.63932349 32.88091322 -59.94189453 34.05224609 C-60.59158203 34.64457031 -61.24126953 35.23689453 -61.91064453 35.84716797 C-65.47021138 39.06584888 -69.13051311 42.16659511 -72.78613281 45.27514648 C-75.52918122 47.60887154 -78.25464879 49.95416843 -80.93408203 52.36083984 C-95.9368395 65.53255211 -112.53475429 69.71714257 -132.00048828 69.73974609 C-133.9308387 69.75806609 -135.86117759 69.77763564 -137.79150391 69.79833984 C-140.79097285 69.82728704 -143.78968883 69.84912175 -146.78930664 69.84960938 C-163.38542202 69.55649697 -163.38542202 69.55649697 -177.64648438 77.15576172 C-184.44316651 84.17717776 -185.28085112 92.8817951 -185.21923828 102.23193359 C-185.23663066 104.27620602 -185.25421493 106.32047681 -185.27197266 108.36474609 C-185.28198972 111.53697892 -185.28565266 114.70909976 -185.28393555 117.88134766 C-185.3093588 139.62331157 -187.8390673 157.68661248 -203.54345703 174.15771484 C-205.86163834 176.61341539 -207.98231466 179.15539676 -210.09814453 181.78662109 C-212.7186934 185.04035373 -215.38675649 188.22952943 -218.16455078 191.34912109 C-218.74237305 192.00114502 -219.32019531 192.65316895 -219.91552734 193.32495117 C-221.04701263 194.59684321 -222.18530722 195.86272281 -223.33154297 197.12133789 C-229.38070773 203.94004362 -233.30926024 211.09549235 -233.03564453 220.41552734 C-232.16403234 230.56617765 -226.00646301 236.56558488 -219.45458984 243.80712891 C-216.51247556 247.08906187 -213.6905289 250.47225189 -210.8605957 253.85083008 C-208.68347845 256.44536898 -206.48709149 258.99987388 -204.21923828 261.51708984 C-199.42610622 266.93954917 -195.67210765 272.21880097 -192.41064453 278.66162109 C-192.09264893 279.28593018 -191.77465332 279.91023926 -191.44702148 280.5534668 C-187.0585743 289.70934733 -185.41028646 298.76184369 -185.44189453 308.85693359 C-185.43105835 309.88543427 -185.42022217 310.91393494 -185.40905762 311.97360229 C-185.36366713 316.32122654 -185.35174423 320.66878319 -185.33691406 325.01660156 C-185.32114181 328.21358911 -185.28813891 331.41009315 -185.25439453 334.60693359 C-185.25741577 335.57591583 -185.26043701 336.54489807 -185.2635498 337.54324341 C-185.17045309 346.05834737 -183.68590215 353.68127967 -177.69003296 360.04176331 C-170.80944162 365.8594569 -163.70923588 367.3180605 -154.93408203 367.16552734 C-153.92076813 367.17116196 -152.90745422 367.17679657 -151.86343384 367.18260193 C-148.64952296 367.19892584 -145.43700489 367.1836471 -142.22314453 367.16162109 C-117.04061596 367.02944443 -97.96808246 369.66797465 -78.58837891 387.04443359 C-74.8913872 390.34724549 -71.12626735 393.57313517 -67.37329102 396.81201172 C-64.43177069 399.3523292 -61.50399435 401.90241053 -58.61767578 404.50537109 C-50.94045093 411.33202219 -43.76331851 416.13947776 -33.16064453 415.59912109 C-23.76378885 414.20354847 -18.51899844 409.66421519 -11.70361328 403.24365234 C-8.99852413 400.73839194 -6.22196885 398.40719969 -3.34814453 396.09912109 C0.47052778 393.02899535 4.08260831 389.83043021 7.65185547 386.47412109 C21.70498525 373.63521357 38.11745915 367.33284255 57.03076172 367.29052734 C59.10693657 367.26538119 61.18310838 367.23998298 63.25927734 367.21435547 C66.49356382 367.18559861 69.72779786 367.16154329 72.9621582 367.14282227 C76.1102866 367.12109457 79.25783576 367.08167065 82.40576172 367.04052734 C83.36430557 367.04041153 84.32284943 367.04029572 85.31044006 367.04017639 C93.24797005 366.92399688 100.39146222 365.51110364 106.15185547 359.59912109 C110.65263682 353.12238695 113.27317898 347.84776153 113.27783203 339.87915039 C113.28354218 338.51568733 113.28354218 338.51568733 113.28936768 337.12467957 C113.29090851 335.6637664 113.29090851 335.6637664 113.29248047 334.17333984 C113.31082909 332.07502188 113.33040125 329.97671432 113.35107422 327.87841797 C113.37983441 324.59853735 113.40185055 321.31932084 113.40234375 318.03930664 C113.42954168 292.45188594 119.46027789 276.58015107 136.43945312 257.52929688 C140.6334803 252.80189755 144.73132607 247.99027815 148.81787109 243.16992188 C150.06400971 241.70256173 151.31855997 240.24235667 152.57373047 238.78271484 C158.93929944 231.17423369 161.42052606 225.5338384 161.64794922 215.60302734 C160.37316387 207.88405146 156.41348187 202.11797132 151.21435547 196.47412109 C150.05404248 195.17347965 148.89389093 193.87269418 147.73388672 192.57177734 C147.14172363 191.91580566 146.54956055 191.25983398 145.93945312 190.58398438 C113.66172007 154.74432721 113.66172007 154.74432721 113.74560547 128.56005859 C113.73476929 127.55375397 113.72393311 126.54744934 113.71276855 125.51065063 C113.66739584 121.25860823 113.6554569 117.00663525 113.640625 112.75439453 C113.6248489 109.62690123 113.59184577 106.4999016 113.55810547 103.37255859 C113.56112671 102.42545013 113.56414795 101.47834167 113.56726074 100.50253296 C113.45859683 90.77873601 111.01402969 82.6558024 104.15185547 75.59912109 C95.25417054 68.32538116 83.13446846 69.88591633 72.33935547 69.91162109 C42.3550409 69.82003192 23.92094122 65.32375323 1.60888672 44.81396484 C-1.84161995 41.70357171 -5.43340649 38.78524494 -9.05126953 35.87255859 C-10.95918581 34.32171044 -12.84396323 32.74206402 -14.70751953 31.13818359 C-21.81796349 25.06877148 -27.73148308 20.84182721 -37.43725586 21.33300781 C-45.12915859 22.18203809 -50.48379492 25.33916111 -56.03564453 30.53662109 Z " fill="#000000" transform="translate(291.84814453125,37.40087890625)"/>
<path d="M0 0 C3.51400112 2.45216165 5.25963272 5.24297856 6.359375 9.359375 C7.2768397 14.91194782 6.50206548 19.26589148 3.796875 24.25390625 C0.73290134 28.04093575 -2.71418059 31.42918298 -6.17895508 34.8449707 C-7.21503632 35.88455732 -8.25003727 36.92522152 -9.28404236 37.96687317 C-12.08270655 40.77973325 -14.89670097 43.57677003 -17.71420121 46.37074685 C-20.66633945 49.30271503 -23.60541118 52.24773048 -26.54631042 55.19096375 C-31.48494135 60.12954117 -36.43330669 65.05819241 -41.38793945 69.98071289 C-47.1103986 75.66626224 -52.81865845 81.36576 -58.51920396 87.07327491 C-64.01213135 92.57251369 -69.51355718 98.06316832 -75.01938438 103.54948997 C-77.3586819 105.88062779 -79.69524086 108.21446026 -82.02967262 110.55047035 C-84.77978893 113.30146748 -87.53736255 116.04476994 -90.30080605 118.78237724 C-91.31194738 119.7863749 -92.32058474 120.79290182 -93.32647324 121.80216217 C-94.70324594 123.18266759 -96.09021398 124.55298254 -97.47761536 125.92280579 C-98.24986859 126.69133031 -99.02212183 127.45985483 -99.81777668 128.25166798 C-103.88688658 131.66723941 -107.85903594 133.682842 -113.203125 133.69140625 C-114.0075 133.71074219 -114.811875 133.73007812 -115.640625 133.75 C-121.51674829 132.61239686 -125.8078714 127.94453246 -129.90136719 123.83032227 C-130.43547714 123.30132324 -130.9695871 122.77232422 -131.5198822 122.22729492 C-133.26841218 120.49256619 -135.00951455 118.75060969 -136.75 117.0078125 C-137.96952838 115.79217474 -139.18927883 114.57675971 -140.40924072 113.36155701 C-142.9577187 110.82051973 -145.50231397 108.27566917 -148.04443359 105.72827148 C-151.2998515 102.46704561 -154.56652541 99.21735873 -157.83640671 95.97064304 C-160.35522971 93.46655625 -162.86708707 90.95557213 -165.37699127 88.44254875 C-166.57871166 87.2413411 -167.78279193 86.04248946 -168.9892807 84.84607124 C-170.67427813 83.17342565 -172.34943741 81.49149555 -174.02246094 79.80688477 C-174.52013474 79.31685471 -175.01780853 78.82682465 -175.53056335 78.32194519 C-179.60716954 74.18274917 -181.05837938 71.07770105 -181.515625 65.31640625 C-181.35221823 59.88313116 -179.28569715 56.47179992 -175.703125 52.44140625 C-172.20129917 49.37730865 -169.46590641 49.06115883 -164.953125 48.94140625 C-163.58414063 48.88533203 -163.58414063 48.88533203 -162.1875 48.828125 C-153.94665902 50.00384708 -148.53755514 56.52133038 -142.98828125 62.17578125 C-142.13254013 63.03576721 -141.27679901 63.89575317 -140.39512634 64.78179932 C-137.67813651 67.51550885 -134.97179639 70.25949103 -132.265625 73.00390625 C-130.41931424 74.86527242 -128.57231631 76.72595725 -126.72460938 78.5859375 C-122.20946028 83.13406692 -117.70299694 87.69066393 -113.203125 92.25390625 C-107.66866832 87.64937446 -102.57405878 82.73902589 -97.51733398 77.61816406 C-96.67738892 76.77193985 -95.83744385 75.92571564 -94.9720459 75.05384827 C-93.15845068 73.22646106 -91.34592413 71.39801275 -89.53436089 69.56861115 C-86.66724588 66.67345686 -83.79454397 63.78388955 -80.92066956 60.89544678 C-79.93352846 59.90316336 -78.94639454 58.91087281 -77.95926762 57.91857529 C-77.46532477 57.42204689 -76.97138193 56.92551848 -76.46247113 56.41394377 C-69.78222279 49.69774022 -63.10685798 42.9767368 -56.44165039 36.24560547 C-51.931498 31.6909348 -47.41424147 27.14344047 -42.88883072 22.60392833 C-40.4989393 20.2059779 -38.11288467 17.80446839 -35.7355938 15.39402008 C-33.08603029 12.71077736 -30.4243462 10.04014482 -27.75952148 7.37207031 C-26.9785762 6.57517288 -26.19763092 5.77827545 -25.39302063 4.95722961 C-17.83566338 -2.558173 -9.88019687 -5.49538082 0 0 Z " fill="#000000" transform="translate(343.203125,190.74609375)"/>
</svg>
